<svg width="32" height="32" viewBox="0 0 32 32" fill="none" xmlns="http://www.w3.org/2000/svg">
<path d="M11.686 26.8447C10.4019 28.1288 6.79094 28.6041 4.73536 28.7739C3.93139 28.8403 3.27819 28.1871 3.34459 27.3831C3.51434 25.3275 3.98967 21.7166 5.27377 20.4325C7.11004 18.5962 10.0341 18.543 11.8048 20.3137C13.5754 22.0844 13.5223 25.0084 11.686 26.8447Z" fill="#1E4DD8"/>
<path fill-rule="evenodd" clip-rule="evenodd" d="M11.585 10.0143C14.9494 4.8055 21.1912 2.17911 27.2986 3.45819C27.9799 3.60087 28.5123 4.13316 28.6549 4.81441C29.935 10.9267 27.2993 17.1721 22.0784 20.5286C21.9642 20.2077 21.7792 19.9092 21.5277 19.6577L12.4229 10.5529C12.1801 10.3101 11.8933 10.1292 11.585 10.0143ZM23.8457 13.2386C22.4729 14.6114 20.2471 14.6114 18.8743 13.2386C17.5014 11.8658 17.5014 9.63996 18.8743 8.26713C20.2471 6.8943 22.4729 6.8943 23.8457 8.26713C25.2186 9.63996 25.2186 11.8658 23.8457 13.2386Z" fill="#1E4DD8"/>
<mask id="mask0_1728_17103" style="mask-type:alpha" maskUnits="userSpaceOnUse" x="1" y="9" width="22" height="22">
<path d="M18.2926 30.2392L21.9943 22.3058C22.411 21.4128 22.2246 20.3545 21.5277 19.6577L12.423 10.5529C11.7261 9.85609 10.6678 9.66962 9.77481 10.0863L1.93707 13.7437C1.26334 14.0581 1.10684 14.9463 1.63255 15.4721C1.8527 15.6922 2.15772 15.8057 2.46823 15.783L7.07336 15.4462C7.75261 15.3966 8.41986 15.6448 8.90144 16.1264L16.2599 23.4849C16.7709 23.9959 17.0176 24.714 16.9285 25.4311L16.3987 29.6944C16.3608 29.9996 16.4658 30.3053 16.6832 30.5227C17.1727 31.0123 17.9998 30.8665 18.2926 30.2392Z" fill="white"/>
</mask>
<g mask="url(#mask0_1728_17103)">
<g filter="url(#filter0_f_1728_17103)">
<path d="M22.0779 20.5288C21.9638 20.2077 21.7787 19.9089 21.527 19.6572L12.4223 10.5524C12.1796 10.3098 11.8931 10.129 11.585 10.014C11.482 10.1735 11.3817 10.3354 11.2842 10.4997L8.87024 14.5543C8.53342 15.1217 8.6242 15.8452 9.09073 16.3117L15.7791 23.0001C16.2449 23.4659 16.9672 23.5569 17.534 23.2212L21.6066 20.8197C21.766 20.7254 21.9231 20.6284 22.0779 20.5288Z" fill="#1E4DD8"/>
</g>
</g>
<g filter="url(#filter1_i_1728_17103)">
<path d="M18.2924 30.2392L21.9942 22.3058C22.4109 21.4128 22.2244 20.3545 21.5276 19.6577L12.4228 10.553C11.726 9.85614 10.6677 9.66967 9.77468 10.0864L1.93694 13.7437C1.26321 14.0581 1.1067 14.9464 1.63242 15.4721C1.85257 15.6923 2.15759 15.8057 2.4681 15.783L7.07323 15.4463C7.75247 15.3966 8.41973 15.6449 8.90131 16.1264L16.2598 23.4849C16.7708 23.9959 17.0174 24.714 16.9283 25.4311L16.3986 29.6944C16.3606 29.9997 16.4656 30.3053 16.6831 30.5228C17.1726 31.0123 17.9997 30.8666 18.2924 30.2392Z" fill="#9EB3EE" fill-opacity="0.4"/>
</g>
<defs>
<filter id="filter0_f_1728_17103" x="6.00142" y="7.34749" width="18.743" height="18.7416" filterUnits="userSpaceOnUse" color-interpolation-filters="sRGB">
<feFlood flood-opacity="0" result="BackgroundImageFix"/>
<feBlend mode="normal" in="SourceGraphic" in2="BackgroundImageFix" result="shape"/>
<feGaussianBlur stdDeviation="1.33327" result="effect1_foregroundBlur_1728_17103"/>
</filter>
<filter id="filter1_i_1728_17103" x="1.31836" y="9.72264" width="21.0396" height="21.0925" filterUnits="userSpaceOnUse" color-interpolation-filters="sRGB">
<feFlood flood-opacity="0" result="BackgroundImageFix"/>
<feBlend mode="normal" in="SourceGraphic" in2="BackgroundImageFix" result="shape"/>
<feColorMatrix in="SourceAlpha" type="matrix" values="0 0 0 0 0 0 0 0 0 0 0 0 0 0 0 0 0 0 127 0" result="hardAlpha"/>
<feOffset dx="0.14381" dy="-0.14381"/>
<feGaussianBlur stdDeviation="0.239683"/>
<feComposite in2="hardAlpha" operator="arithmetic" k2="-1" k3="1"/>
<feColorMatrix type="matrix" values="0 0 0 0 1 0 0 0 0 1 0 0 0 0 1 0 0 0 0.6 0"/>
<feBlend mode="normal" in2="shape" result="effect1_innerShadow_1728_17103"/>
</filter>
</defs>
</svg>
