<svg width="33" height="32" viewBox="0 0 33 32" fill="none" xmlns="http://www.w3.org/2000/svg">
<path d="M16.3529 2.66766C11.1985 2.66766 7.02002 6.84614 7.02002 12.0005H25.6858C25.6858 6.84614 21.5073 2.66766 16.3529 2.66766Z" fill="#EC713C"/>
<mask id="mask0_1728_16963" style="mask-type:alpha" maskUnits="userSpaceOnUse" x="2" y="12" width="29" height="18">
<path d="M2.35352 13.4449C2.35352 12.6472 3.01328 12.0005 3.82713 12.0005L28.8786 12.0005C29.6925 12.0005 30.3522 12.6472 30.3522 13.4449V27.8887C30.3522 28.6864 29.6925 29.3331 28.8786 29.3331H3.82713C3.01328 29.3331 2.35352 28.6864 2.35352 27.8887L2.35352 13.4449Z" fill="#F7C2AB"/>
</mask>
<g mask="url(#mask0_1728_16963)">
<g filter="url(#filter0_f_1728_16963)">
<path d="M16.3529 21.3334C11.1985 21.3334 7.02002 17.155 7.02002 12.0005H25.6858C25.6858 17.155 21.5073 21.3334 16.3529 21.3334Z" fill="#EC713C"/>
</g>
</g>
<g filter="url(#filter1_i_1728_16963)">
<path d="M2.35352 13.4449C2.35352 12.6472 3.01328 12.0005 3.82713 12.0005L28.8786 12.0005C29.6925 12.0005 30.3522 12.6472 30.3522 13.4449V27.8887C30.3522 28.6864 29.6925 29.3331 28.8786 29.3331H3.82713C3.01328 29.3331 2.35352 28.6864 2.35352 27.8887L2.35352 13.4449Z" fill="#F7C2AB" fill-opacity="0.4"/>
</g>
<defs>
<filter id="filter0_f_1728_16963" x="4.33328" y="9.31381" width="24.0392" height="14.7064" filterUnits="userSpaceOnUse" color-interpolation-filters="sRGB">
<feFlood flood-opacity="0" result="BackgroundImageFix"/>
<feBlend mode="normal" in="SourceGraphic" in2="BackgroundImageFix" result="shape"/>
<feGaussianBlur stdDeviation="1.34337" result="effect1_foregroundBlur_1728_16963"/>
</filter>
<filter id="filter1_i_1728_16963" x="2.35352" y="12.0005" width="27.9988" height="17.5475" filterUnits="userSpaceOnUse" color-interpolation-filters="sRGB">
<feFlood flood-opacity="0" result="BackgroundImageFix"/>
<feBlend mode="normal" in="SourceGraphic" in2="BackgroundImageFix" result="shape"/>
<feColorMatrix in="SourceAlpha" type="matrix" values="0 0 0 0 0 0 0 0 0 0 0 0 0 0 0 0 0 0 127 0" result="hardAlpha"/>
<feOffset dy="0.21499"/>
<feGaussianBlur stdDeviation="0.358317"/>
<feComposite in2="hardAlpha" operator="arithmetic" k2="-1" k3="1"/>
<feColorMatrix type="matrix" values="0 0 0 0 1 0 0 0 0 1 0 0 0 0 1 0 0 0 0.6 0"/>
<feBlend mode="normal" in2="shape" result="effect1_innerShadow_1728_16963"/>
</filter>
</defs>
</svg>
