<svg width="33" height="32" viewBox="0 0 33 32" fill="none" xmlns="http://www.w3.org/2000/svg">
<mask id="mask0_1728_17169" style="mask-type:alpha" maskUnits="userSpaceOnUse" x="3" y="3" width="27" height="16">
<path d="M3.31152 17.238C3.31152 18.3357 4.5575 18.9657 5.43754 18.3131L9.32167 15.4472C9.72293 15.1496 10.2563 15.1017 10.704 15.323L15.9285 17.8879C16.3692 18.1058 16.8937 18.0629 17.2934 17.7764L29.4191 9.14803C29.7692 8.89701 29.977 8.49192 29.977 8.06028V4.67029C29.977 3.93183 29.38 3.33319 28.6437 3.33319H4.6448C3.90845 3.33319 3.31152 3.93183 3.31152 4.67029V17.238Z" fill="#BCBFC1"/>
</mask>
<g mask="url(#mask0_1728_17169)">
<path d="M13.9777 4.66646C13.9777 3.93012 14.5746 3.33319 15.3109 3.33319H17.9775C18.7138 3.33319 19.3108 3.93012 19.3108 4.66646V19.3325C19.3108 20.0688 18.7138 20.6657 17.9775 20.6657H15.3109C14.5746 20.6657 13.9777 20.0688 13.9777 19.3325V4.66646Z" fill="#14171A"/>
<path d="M5.97803 11.9995C5.97803 11.2631 6.57495 10.6662 7.3113 10.6662H9.97784C10.7142 10.6662 11.3111 11.2631 11.3111 11.9995V21.3324C11.3111 22.0687 10.7142 22.6656 9.97784 22.6656H7.3113C6.57495 22.6656 5.97803 22.0687 5.97803 21.3324V11.9995Z" fill="#14171A"/>
<path d="M23.3106 7.99964C22.5742 7.99964 21.9773 8.59657 21.9773 9.33292V23.9989C21.9773 24.7353 22.5742 25.3322 23.3106 25.3322H25.9771C26.7135 25.3322 27.3104 24.7353 27.3104 23.9989V9.33292C27.3104 8.59657 26.7135 7.99964 25.9771 7.99964H23.3106Z" fill="#14171A"/>
</g>
<mask id="mask1_1728_17169" style="mask-type:alpha" maskUnits="userSpaceOnUse" x="3" y="9" width="27" height="20">
<path d="M3.31152 20.5462C3.31152 20.1251 3.51209 19.729 3.85205 19.4786L9.32448 15.4483C9.72575 15.1528 10.2591 15.1052 10.7068 15.325L15.9285 17.8888C16.3692 18.1051 16.8937 18.0626 17.2934 17.778L27.8683 10.2495C28.7507 9.62133 29.977 10.2495 29.977 11.3297V27.3376C29.977 28.0709 29.38 28.6654 28.6437 28.6654H4.6448C3.90845 28.6654 3.31152 28.0709 3.31152 27.3376V20.5462Z" fill="#BCBFC1"/>
</mask>
<g mask="url(#mask1_1728_17169)">
<g filter="url(#filter0_f_1728_17169)">
<path d="M13.9777 4.66646C13.9777 3.93012 14.5746 3.33319 15.3109 3.33319H17.9775C18.7138 3.33319 19.3108 3.93012 19.3108 4.66646V19.3325C19.3108 20.0688 18.7138 20.6657 17.9775 20.6657H15.3109C14.5746 20.6657 13.9777 20.0688 13.9777 19.3325V4.66646Z" fill="#14171A"/>
<path d="M5.97803 11.9995C5.97803 11.2631 6.57495 10.6662 7.3113 10.6662H9.97784C10.7142 10.6662 11.3111 11.2631 11.3111 11.9995V21.3324C11.3111 22.0687 10.7142 22.6656 9.97784 22.6656H7.3113C6.57495 22.6656 5.97803 22.0687 5.97803 21.3324V11.9995Z" fill="#14171A"/>
<path d="M23.3106 7.99964C22.5742 7.99964 21.9773 8.59657 21.9773 9.33292V23.9989C21.9773 24.7353 22.5742 25.3322 23.3106 25.3322H25.9771C26.7135 25.3322 27.3104 24.7353 27.3104 23.9989V9.33292C27.3104 8.59657 26.7135 7.99964 25.9771 7.99964H23.3106Z" fill="#14171A"/>
</g>
</g>
<g filter="url(#filter1_i_1728_17169)">
<path d="M3.31152 20.5462C3.31152 20.1251 3.51209 19.729 3.85205 19.4786L9.32448 15.4483C9.72575 15.1528 10.2591 15.1052 10.7068 15.325L15.9285 17.8888C16.3692 18.1051 16.8937 18.0626 17.2934 17.778L27.8683 10.2495C28.7507 9.62133 29.977 10.2495 29.977 11.3297V27.3376C29.977 28.0709 29.38 28.6654 28.6437 28.6654H4.6448C3.90845 28.6654 3.31152 28.0709 3.31152 27.3376V20.5462Z" fill="#BCBFC1" fill-opacity="0.4"/>
</g>
<defs>
<filter id="filter0_f_1728_17169" x="3.31148" y="0.666646" width="26.6656" height="27.3321" filterUnits="userSpaceOnUse" color-interpolation-filters="sRGB">
<feFlood flood-opacity="0" result="BackgroundImageFix"/>
<feBlend mode="normal" in="SourceGraphic" in2="BackgroundImageFix" result="shape"/>
<feGaussianBlur stdDeviation="1.33327" result="effect1_foregroundBlur_1728_17169"/>
</filter>
<filter id="filter1_i_1728_17169" x="3.31152" y="9.79958" width="26.8655" height="18.8658" filterUnits="userSpaceOnUse" color-interpolation-filters="sRGB">
<feFlood flood-opacity="0" result="BackgroundImageFix"/>
<feBlend mode="normal" in="SourceGraphic" in2="BackgroundImageFix" result="shape"/>
<feColorMatrix in="SourceAlpha" type="matrix" values="0 0 0 0 0 0 0 0 0 0 0 0 0 0 0 0 0 0 127 0" result="hardAlpha"/>
<feOffset dx="0.199991" dy="-0.199991"/>
<feGaussianBlur stdDeviation="0.333318"/>
<feComposite in2="hardAlpha" operator="arithmetic" k2="-1" k3="1"/>
<feColorMatrix type="matrix" values="0 0 0 0 1 0 0 0 0 1 0 0 0 0 1 0 0 0 0.6 0"/>
<feBlend mode="normal" in2="shape" result="effect1_innerShadow_1728_17169"/>
</filter>
</defs>
</svg>
