<svg width="346" height="64" viewBox="0 0 346 64" fill="none" xmlns="http://www.w3.org/2000/svg">
<path d="M309.871 51.7349H322.372C322.853 53.3115 324.502 54.8888 327.593 54.8888C331.781 54.8888 333.226 52.2836 333.226 48.4456V45.7058H332.95C330.89 48.1046 328.141 49.8863 324.089 49.8863C316.121 49.8863 309.184 43.9925 309.184 32.4826C309.184 21.9308 314.885 13.7094 323.471 13.7094C328.417 13.7094 331.44 15.696 333.431 18.8479H333.636V14.8062H346V46.7337C346 52.626 343.941 57.2165 340.849 59.9583C337.622 62.8348 333.018 64 327.799 64C317.976 64 311.107 59.9583 309.871 51.7349ZM333.773 31.8661C333.773 27.275 331.577 23.5764 327.799 23.5764C324.158 23.5764 321.822 26.8643 321.822 31.8661C321.822 36.7997 324.158 40.3616 327.799 40.3616C331.577 40.3616 333.773 36.7313 333.773 31.8661ZM295.379 21.11H295.584C298.262 15.9708 301.766 14.0524 306.23 14.0524C307.259 14.0524 307.948 14.1898 308.359 14.3948V25.6998H308.085C300.461 24.3302 295.997 27.9618 295.997 36.2516V51.6672H283.015V14.8069H295.379V21.11ZM0 0.00634782H25.4144C30.2211 0.00634782 33.9302 1.17156 36.5425 3.29491C39.4939 5.69298 41.0751 9.25628 41.0751 13.5037C41.0751 18.4372 39.0835 21.5207 34.9613 23.4384V23.6448C40.3201 25.425 43.4086 30.2205 43.4086 36.0452C43.4086 41.5951 41.28 45.9109 37.7764 48.5153C34.8243 50.6394 30.9788 51.6672 25.8961 51.6672H0V0.00634782ZM24.1785 40.2242C27.269 40.2242 29.5339 38.3742 29.5339 34.9497C29.5339 31.3857 27.0614 29.6738 24.11 29.6738H14.0815V40.2242H24.1785ZM22.8734 20.2174C25.62 20.2174 27.6115 18.7112 27.6115 15.696C27.6115 12.7505 25.5515 11.3113 22.8049 11.3113H14.0815V20.2174H22.8734Z" fill="#94A8B6"/>
<path d="M45.7547 0H59.0792V51.6609H45.7547V0ZM61.623 33.2977C61.623 21.6504 69.1783 13.7714 80.853 13.7714C92.5305 13.7714 99.9488 21.6504 99.9488 33.2977C99.9488 45.0147 92.5305 52.824 80.853 52.824C69.1783 52.824 61.623 45.0147 61.623 33.2977ZM86.7613 33.2977C86.7613 26.8579 84.6992 22.8156 80.716 22.8156C76.7336 22.8156 74.8105 26.8579 74.8105 33.2977C74.8105 39.8072 76.7336 43.8495 80.716 43.8495C84.6992 43.8495 86.7613 39.8072 86.7613 33.2977ZM101.465 33.2977C101.465 21.6504 109.02 13.7714 120.695 13.7714C132.373 13.7714 139.791 21.6504 139.791 33.2977C139.791 45.0147 132.373 52.824 120.695 52.824C109.02 52.824 101.465 45.0147 101.465 33.2977ZM126.603 33.2977C126.603 26.8579 124.541 22.8156 120.558 22.8156C116.576 22.8156 114.652 26.8579 114.652 33.2977C114.652 39.8072 116.576 43.8495 120.558 43.8495C124.541 43.8495 126.603 39.8072 126.603 33.2977ZM142.335 14.7999H154.699V20.3485H154.904C157.377 16.0321 160.741 13.703 166.031 13.703C170.701 13.703 174.205 16.0321 175.991 20.0744H176.196C179.219 15.2092 183.134 13.703 187.666 13.703C196.253 13.703 199.962 20.0061 199.962 28.5022V51.6602H186.98V30.8313C186.98 27.0623 185.812 24.5958 182.516 24.5958C179.287 24.5958 177.638 27.611 177.638 31.5858V51.6602H164.659V30.8313C164.659 27.0623 163.49 24.5958 160.194 24.5958C156.963 24.5958 155.317 27.611 155.317 31.5858V51.6602H142.335V14.7999ZM215.838 46.8647H215.701V51.6609H203.337V0H216.319V18.6365H216.525C218.997 15.417 222.293 13.703 227.034 13.703C236.307 13.703 241.663 22.0611 241.663 33.1617C241.663 45.6995 235.825 52.8937 226.211 52.8937C222.225 52.8937 218.105 50.9754 215.838 46.8647ZM228.476 33.025C228.476 27.063 226.279 23.2263 222.362 23.2263C218.379 23.2263 215.838 27.063 215.838 33.025C215.838 38.916 218.379 42.8223 222.362 42.8223C226.348 42.8223 228.476 38.9843 228.476 33.025ZM243.315 33.1617C243.315 21.6504 250.939 13.6354 261.998 13.6354C267.493 13.6354 271.753 15.3473 274.98 18.4308C279.239 22.5415 281.162 28.9813 281.023 36.5876H256.229C256.779 41.1788 258.976 43.5071 262.889 43.5071C265.157 43.5071 267.149 42.48 267.975 40.0135H280.473C278.277 48.4393 271.753 52.688 262.48 52.688C251.01 52.688 243.315 44.9471 243.315 33.1617ZM256.229 29.325H268.043C267.835 24.872 265.363 22.5415 262.272 22.5415C258.702 22.5415 256.711 25.0763 256.229 29.325Z" fill="#94A8B6"/>
</svg>
