<svg width="134" height="28" viewBox="0 0 134 28" fill="none" xmlns="http://www.w3.org/2000/svg">
<g clip-path="url(#clip0_4163_56980)">
<g clip-path="url(#clip1_4163_56980)">
<path fill-rule="evenodd" clip-rule="evenodd" d="M12.9557 19.0011L14.6022 8.66177C14.7241 7.92761 14.4802 7.25463 14.1753 6.64284C13.8704 5.96986 13.2606 5.5416 12.6508 5.2357C11.5532 4.74627 10.0897 5.05217 9.29695 5.8475C8.50422 6.64284 8.07736 7.86643 8.50422 9.09002L12.5289 18.1446L12.9557 19.0011ZM21.4312 6.8876C21.2482 6.45934 20.9433 6.09226 20.5775 5.78637C19.6628 4.99103 18.1383 4.86867 17.0407 5.48047C16.004 5.9699 15.3942 7.13232 15.3942 8.23355H16.7358C16.825 8.32313 16.8816 8.34713 16.9534 8.37756L16.9534 8.37757L16.9535 8.37758C16.9797 8.38871 17.008 8.40071 17.0407 8.41709C16.9191 8.51193 16.7737 8.60376 16.6235 8.69858C16.0955 9.03193 15.5092 9.4021 15.6991 10.0689L17.1016 19.1235L21.0653 10.1913C21.6751 9.15125 21.98 7.92765 21.4312 6.8876ZM27.1641 14.0453C27.7739 13.25 27.8349 11.8429 27.347 10.9252C26.8592 10.0687 25.9445 9.45687 25.0298 9.21215C23.7493 9.02861 22.5297 9.64041 21.7979 10.864L17.3464 20.8975L17.2245 21.2034L25.6396 15.3913C25.7982 15.2521 25.9696 15.1258 26.1435 14.9978C26.5045 14.7319 26.876 14.4583 27.1641 14.0453ZM3.56567 14.7182L12.8955 21.142H13.0175L8.38305 10.8638C7.59031 9.51788 5.94387 8.90608 4.41939 9.4567C3.50469 9.88496 2.77294 10.6803 2.59 11.598C2.10217 12.7604 2.52902 13.984 3.56567 14.7182ZM29.7847 18.3279C30.1506 19.1844 30.0896 20.6528 29.3578 21.4481C28.6261 22.2434 27.8333 22.6105 26.8577 22.6105H16.918L25.2112 16.8596C26.004 16.3702 27.2235 16.2478 28.1382 16.6761C28.87 16.982 29.4798 17.5938 29.7847 18.3279ZM13.1389 22.6113L4.84572 16.7381C4.05299 16.2486 2.8334 16.1263 1.91871 16.5545C1.18696 16.8604 0.577165 17.4722 0.272268 18.2064C-0.215567 19.2465 -0.0326292 20.5312 0.699124 21.3266C1.30892 22.1219 2.22361 22.5502 3.26026 22.5502L13.1389 22.6113Z" fill="#94A8B6"/>
<path d="M50.3373 11.5385C49.9104 9.7031 48.5079 9.21367 46.8005 9.09131C41.4343 8.60187 40.5196 12.6397 40.5196 14.3528C40.5196 17.2894 41.3123 19.6142 46.6175 19.6142C47.6542 19.6142 50.2763 18.5742 50.2763 16.9835H57.8987C57.5938 21.8779 49.4835 22.9791 45.9467 22.9791C38.6292 22.9791 32.3483 21.6331 32.6532 14.3528C32.8362 9.15249 37.7145 5.54289 47.4102 5.78761C52.7764 5.90996 57.9597 7.623 57.9597 11.4773H50.3373V11.5385Z" fill="#94A8B6"/>
<path d="M126.316 11.5367C125.89 9.7013 124.487 9.21186 122.78 9.0895C117.414 8.60006 116.499 12.6379 116.499 14.2898C116.499 17.2264 117.292 19.5512 122.597 19.5512C123.633 19.5512 126.256 18.5112 126.256 16.9205H133.878C133.573 21.8149 125.463 22.9161 121.926 22.9161C114.608 22.9161 108.328 21.5702 108.632 14.2898C108.815 9.0895 113.694 5.4799 123.389 5.72462C128.756 5.84698 134 7.56001 134 11.4143H126.316V11.5367Z" fill="#94A8B6"/>
<path d="M59.3616 6.15283H69.1793L77.5944 17.9605H77.7164V6.15283H83.9973V22.4878H74.6064L65.8254 10.6801H65.7034V22.4878H59.3616C59.3616 22.549 59.3616 6.15283 59.3616 6.15283Z" fill="#94A8B6"/>
<path d="M85.8884 6.15283H97.8404C103.633 6.15283 106.926 7.80468 106.926 10.1907C106.926 11.5978 105.524 13.4332 102.353 13.9226C106.073 14.1062 107.536 16.5534 107.536 17.9605C107.536 20.8971 104.304 22.4266 97.8404 22.4266H85.8884V6.15283ZM92.9011 12.5767H94.9134C97.9624 12.5767 99.5478 12.3932 99.5478 11.0472C99.5478 9.70125 98.2063 9.21182 95.5232 9.21182H92.962V12.5767H92.9011ZM92.9011 19.1841H94.9134C98.5721 19.1841 99.9747 18.7558 99.9747 17.5323C99.9747 16.1863 98.2673 15.6969 95.5232 15.6969H92.962V19.1229H92.9011V19.1841Z" fill="#94A8B6"/>
</g>
</g>
<defs>
<clipPath id="clip0_4163_56980">
<rect width="134" height="28" fill="white"/>
</clipPath>
<clipPath id="clip1_4163_56980">
<rect width="134" height="17.9789" fill="white" transform="translate(0 5)"/>
</clipPath>
</defs>
</svg>
