<svg width="248" height="64" viewBox="0 0 248 64" fill="none" xmlns="http://www.w3.org/2000/svg">
<path d="M39.8191 46.5491L28.3705 51.499V50.999C26.0824 51.5591 23.7446 51.894 21.3908 51.999C10.6452 51.899 2.10896 46.2991 2.00853 39.6493V37.1493C5.52346 42.2492 12.7542 45.6991 21.3908 45.5491C24.2371 45.6359 27.0804 45.2988 29.8267 44.5492L30.8309 42.0492C27.7727 42.9971 24.5935 43.5023 21.3908 43.5492C10.6452 43.5992 2.10896 37.9993 2.00853 31.1994V29.1995C5.52346 33.9494 12.7039 37.3493 21.3908 37.1493C25.1471 37.3528 28.8983 36.6675 32.3373 35.1493L32.8395 32.6494C29.2908 34.4161 25.3563 35.2753 21.3908 35.1493C10.6452 35.2993 2.10896 29.6994 2.00853 22.7996V20.7996C5.52346 25.6495 12.7542 29.0495 21.3908 29.1995C26.0782 29.0589 30.6752 27.8804 34.848 25.7495L35.3501 22.7996C31.8854 25.3495 26.8139 26.9995 21.4411 27.2495C10.6452 26.9995 2.10896 21.3996 2.00853 14.3497C2.10896 7.69986 10.6452 2.04996 21.3908 1.99996C27.8181 2.09996 33.7433 4.34992 37.3084 7.94985L37.6599 8.49984H40.1706L39.8191 7.89985C36.254 3.14994 29.2241 0 21.3908 0C9.4903 0 0 6.54988 0 14.3497V40.0992C0.401706 47.7491 9.69115 53.999 21.3908 53.999C29.1237 53.999 36.0531 50.949 39.8191 46.5491Z" fill="#94A8B6"/>
<path d="M35.1533 64L39.1704 47.0003L27.6213 52.0002L34.6512 22.5007H21.0936L24.6086 8.00098H67.7919L64.277 22.5007H50.2173L47.2045 30.5006L62.7706 24.0007L35.1533 64ZM42.1832 43.5003L40.1747 53.5001L56.745 28.5006L43.1874 34.5005L49.213 20.5007H62.7706L65.2813 10.0009H26.1149L23.6043 20.5007H37.1619L30.6341 48.5002L42.1832 43.5003Z" fill="#94A8B6"/>
<path d="M94.6504 17.7051C94.6281 18.4254 94.4582 19.1335 94.1509 19.7859C93.8437 20.4383 93.4058 21.0213 92.864 21.499C91.6665 22.4639 90.1546 22.9566 88.6159 22.8833C87.7622 22.9242 86.9102 22.7715 86.1244 22.4367C85.3385 22.1019 84.6393 21.5937 84.0796 20.9504C82.9782 19.6619 82.4274 17.8931 82.4271 15.6442V14.7316C82.4002 13.4267 82.6603 12.1319 83.1891 10.9377C83.6471 9.90128 84.4056 9.02472 85.3673 8.4204C86.526 7.76839 87.8512 7.46897 89.179 7.55918C90.5069 7.64939 91.779 8.12528 92.838 8.92796C93.9363 9.9345 94.5944 11.3298 94.671 12.8141H91.5817C91.5833 12.0394 91.2951 11.2918 90.7731 10.7172C90.1774 10.2387 89.4201 10.0057 88.6571 10.0661C88.2093 10.0378 87.7616 10.1242 87.3568 10.3172C86.952 10.5101 86.6037 10.8032 86.3451 11.1684C85.8336 11.9032 85.5711 13.0431 85.5575 14.588V15.7159C85.5575 17.3292 85.8031 18.5084 86.2941 19.2535C86.5483 19.6266 86.8967 19.9263 87.3044 20.1225C87.712 20.3188 88.1644 20.4045 88.6159 20.3711C89.3852 20.4311 90.1487 20.1984 90.7524 19.72C91.27 19.1756 91.5593 18.4548 91.5611 17.7051L94.6504 17.7051Z" fill="#94A8B6"/>
<path d="M109.001 15.5516C109.03 16.8819 108.762 18.202 108.218 19.4173C107.742 20.473 106.962 21.3648 105.978 21.9807C104.967 22.5699 103.817 22.8812 102.646 22.883C101.474 22.8848 100.323 22.577 99.3106 21.991C98.3215 21.3804 97.5338 20.4945 97.0451 19.4429C96.4901 18.2501 96.2121 16.9481 96.2316 15.6337V14.8954C96.2035 13.5586 96.4762 12.2325 97.0299 11.0143C97.5108 9.95428 98.2951 9.05903 99.2846 8.44065C100.296 7.85308 101.445 7.54346 102.616 7.54346C103.787 7.54346 104.937 7.85308 105.948 8.44065C106.937 9.05931 107.721 9.95448 108.202 11.0143C108.755 12.2291 109.028 13.5517 109.001 14.8851L109.001 15.5516ZM105.87 14.8749C105.87 13.3095 105.589 12.12 105.026 11.3066C104.75 10.9298 104.389 10.6231 103.972 10.4111C103.555 10.1991 103.093 10.0879 102.625 10.0864C102.157 10.0849 101.695 10.1932 101.277 10.4025C100.858 10.6118 100.495 10.9162 100.217 11.2912C99.6538 12.0944 99.3689 13.2719 99.3621 14.8236V15.5516C99.2898 16.7909 99.5834 18.0242 100.206 19.0994C100.476 19.4848 100.834 19.8004 101.252 20.0197C101.669 20.2391 102.132 20.3559 102.604 20.3605C103.076 20.365 103.542 20.2571 103.963 20.0457C104.384 19.8343 104.749 19.5257 105.026 19.1455C105.582 18.3355 105.863 17.1546 105.87 15.6029V14.8749Z" fill="#94A8B6"/>
<path d="M114.533 22.6491H111.443V7.71973H114.533V22.6491Z" fill="#94A8B6"/>
<path d="M129.592 22.6491H126.503L120.489 12.8261V22.6491H117.4V7.71973H120.489L126.513 17.5633V7.71973H129.592V22.6491Z" fill="#94A8B6"/>
<path d="M143.273 10.2114H138.68V22.6491H135.591V10.2114H131.06V7.71973H143.273L143.273 10.2114Z" fill="#94A8B6"/>
<path d="M154.054 16.179H148.122V20.178H155.084V22.6491H145.033V7.71973H155.063V10.2114H148.122V13.7694H154.054V16.179Z" fill="#94A8B6"/>
<path d="M159.991 20.178H166.55V22.6491H156.901V7.71973H159.991V20.178Z" fill="#94A8B6"/>
<path d="M177.329 16.179H171.398V20.178H178.359V22.6491H168.309V7.71973H178.338V10.2114H171.398V13.7694H177.329V16.179Z" fill="#94A8B6"/>
<path d="M192.048 20.793C191.414 21.5078 190.6 22.0406 189.689 22.3362C188.604 22.7134 187.461 22.899 186.312 22.8847C185.119 22.9111 183.94 22.619 182.898 22.0388C181.912 21.4665 181.122 20.6104 180.633 19.583C180.076 18.3998 179.796 17.1061 179.814 15.7994V14.7843C179.782 13.4546 180.04 12.1339 180.571 10.9135C181.027 9.87828 181.788 9.00566 182.754 8.41162C183.765 7.81793 184.922 7.51779 186.096 7.54518C187.874 7.54518 189.264 7.96729 190.266 8.81151C191.321 9.76082 191.961 11.0842 192.048 12.4977H189.041C188.974 11.7834 188.65 11.1171 188.13 10.6213C187.575 10.1975 186.886 9.9864 186.188 10.0266C185.72 10.0024 185.254 10.0982 184.834 10.3046C184.414 10.5111 184.054 10.8213 183.789 11.2058C183.24 11.9919 182.962 13.1608 182.955 14.7125V15.6661C182.955 17.2315 183.253 18.4141 183.851 19.2139C184.156 19.6132 184.555 19.9316 185.013 20.1408C185.471 20.35 185.974 20.4437 186.477 20.4136C187.637 20.4136 188.464 20.1675 188.958 19.6753V17.1016H186.147V14.8356H192.048L192.048 20.793Z" fill="#94A8B6"/>
<path d="M200.096 17.1839H197.635V22.6491H194.545V7.71973H200.116C201.887 7.71973 203.254 8.11279 204.215 8.8989C204.698 9.30547 205.079 9.81804 205.329 10.3963C205.579 10.9745 205.691 11.6027 205.656 12.2313C205.69 13.1271 205.459 14.0129 204.992 14.7794C204.494 15.5049 203.795 16.0698 202.979 16.4046L206.223 22.5056V22.6491H202.907L200.096 17.1839ZM197.635 14.6922H200.127C200.781 14.7336 201.426 14.5225 201.929 14.1026C202.146 13.8929 202.315 13.6393 202.425 13.3589C202.535 13.0786 202.583 12.778 202.567 12.4774C202.584 12.1744 202.54 11.8711 202.436 11.5857C202.332 11.3002 202.172 11.0385 201.964 10.8163C201.713 10.5977 201.419 10.4316 201.102 10.3276C200.784 10.2237 200.449 10.1842 200.116 10.2113H197.635V14.6922Z" fill="#94A8B6"/>
<path d="M216.463 19.573H211.047L210.017 22.6491H206.732L212.313 7.71973H215.176L220.788 22.6491H217.504L216.463 19.573ZM211.881 17.0814H215.629L213.745 11.4931L211.881 17.0814Z" fill="#94A8B6"/>
<path d="M225.287 17.3905V22.6506H222.197V7.72123H228.046C229.071 7.69968 230.086 7.91004 231.017 8.33645C231.833 8.71232 232.52 9.32068 232.989 10.0847C233.456 10.8637 233.695 11.7567 233.679 12.6635C233.709 13.3167 233.589 13.9682 233.328 14.568C233.066 15.1678 232.67 15.7001 232.17 16.1241C231.165 16.9684 229.773 17.3905 227.995 17.3905L225.287 17.3905ZM225.287 14.8988H228.046C228.719 14.9453 229.386 14.7406 229.916 14.3246C230.136 14.1143 230.308 13.8585 230.419 13.5751C230.53 13.2917 230.578 12.9876 230.559 12.684C230.573 12.3604 230.523 12.0371 230.412 11.7327C230.301 11.4283 230.13 11.1488 229.91 10.9101C229.675 10.6783 229.395 10.4968 229.087 10.3769C228.779 10.257 228.449 10.2012 228.118 10.2129H225.287V14.8988Z" fill="#94A8B6"/>
<path d="M248 22.6491H244.911V16.2508H238.887V22.6491H235.797V7.71973H238.887V13.7694H244.911V7.71973H248V22.6491Z" fill="#94A8B6"/>
<path d="M92.0704 38.6421H88.2431V49.0071H85.6687V38.6421H81.8929V36.5659H92.0704L92.0704 38.6421Z" fill="#94A8B6"/>
<path d="M95.7934 40.765C96.0876 40.3916 96.4644 40.0909 96.8946 39.8863C97.3247 39.6818 97.7965 39.579 98.2731 39.5859C100.287 39.5859 101.308 40.7507 101.336 43.0804V49.0022H98.8567V43.1488C98.8907 42.7286 98.7685 42.3105 98.5134 41.974C98.3607 41.8344 98.1802 41.7283 97.9836 41.6629C97.7869 41.5974 97.5787 41.574 97.3723 41.5941C97.0568 41.5724 96.7415 41.6393 96.4624 41.7872C96.1832 41.9352 95.9514 42.1583 95.7934 42.431V49.0022H93.3131V35.8774H95.7934V40.765Z" fill="#94A8B6"/>
<path d="M107.478 49.1802C106.868 49.2047 106.259 49.1068 105.688 48.8925C105.117 48.6782 104.594 48.3518 104.152 47.9327C103.719 47.497 103.382 46.9767 103.161 46.4047C102.94 45.8326 102.841 45.2212 102.87 44.609V44.3697C102.855 43.509 103.04 42.6565 103.41 41.8786C103.743 41.1774 104.276 40.5891 104.942 40.1867C105.626 39.7845 106.409 39.579 107.203 39.593C107.76 39.5644 108.317 39.6566 108.835 39.8631C109.353 40.0696 109.819 40.3856 110.202 40.7892C110.932 41.5866 111.296 42.7173 111.296 44.1813V45.19H105.384C105.44 45.7458 105.698 46.2622 106.109 46.6422C106.53 47.0134 107.079 47.2092 107.641 47.189C108.07 47.2084 108.498 47.1246 108.888 46.9446C109.277 46.7647 109.618 46.494 109.881 46.1554L111.099 47.5142C110.714 48.0493 110.192 48.4725 109.588 48.7403C108.926 49.0393 108.205 49.1895 107.478 49.1802ZM107.194 41.5837C106.971 41.5755 106.748 41.6159 106.541 41.7018C106.334 41.7878 106.149 41.9174 105.998 42.0817C105.66 42.4858 105.455 42.9829 105.41 43.5065H108.859V43.3092C108.878 42.8434 108.719 42.3879 108.413 42.0348C108.253 41.8788 108.062 41.758 107.852 41.6803C107.642 41.6026 107.418 41.5697 107.194 41.5837H107.194Z" fill="#94A8B6"/>
<path d="M117.758 48.9984V41.5644H116.377V39.753H117.758V38.9668C117.731 38.5245 117.797 38.0814 117.951 37.6658C118.106 37.2502 118.345 36.8711 118.655 36.5528C119.344 35.947 120.247 35.6382 121.165 35.6939C121.59 35.7049 122.013 35.7622 122.426 35.8648L122.4 37.7789C122.153 37.7234 121.899 37.6977 121.645 37.7022C120.713 37.7022 120.247 38.1379 120.247 39.0093V39.7529H122.091V41.5644H120.247V48.9984H117.758Z" fill="#94A8B6"/>
<path d="M128.943 48.0663C128.634 48.4346 128.245 48.7267 127.804 48.9195C127.363 49.1122 126.883 49.2004 126.402 49.1771C125.983 49.2054 125.563 49.1438 125.17 48.9964C124.777 48.8489 124.42 48.6192 124.124 48.3226C123.554 47.6162 123.268 46.7236 123.322 45.8187V39.7607H125.802V45.7406C125.802 46.7045 126.243 47.1862 127.123 47.1859C127.466 47.222 127.812 47.1589 128.119 47.0042C128.427 46.8494 128.683 46.6095 128.857 46.3134V39.7607H131.345V49.0062H129.011L128.943 48.0663Z" fill="#94A8B6"/>
<path d="M136.176 37.4819V39.7548H137.764V41.5663H136.176V46.1805C136.152 46.441 136.222 46.7015 136.374 46.9153C136.477 47.0019 136.598 47.0662 136.728 47.1045C136.858 47.1427 136.994 47.1539 137.129 47.1375C137.373 47.1401 137.618 47.1199 137.858 47.0774V48.949C137.372 49.0971 136.865 49.1719 136.356 49.1712C134.617 49.1712 133.73 48.2968 133.696 46.5482V41.5663H132.34V39.7549H133.696V37.482L136.176 37.4819Z" fill="#94A8B6"/>
<path d="M144.717 48.0663C144.409 48.4346 144.019 48.7267 143.578 48.9195C143.137 49.1122 142.658 49.2004 142.177 49.1771C141.758 49.2054 141.337 49.1438 140.944 48.9964C140.551 48.8489 140.195 48.6192 139.898 48.3226C139.328 47.6162 139.042 46.7236 139.096 45.8187V39.7607H141.577V45.7406C141.577 46.7045 142.017 47.1862 142.898 47.1859C143.24 47.222 143.586 47.1589 143.894 47.0042C144.201 46.8494 144.457 46.6095 144.631 46.3134V39.7607H147.12V49.0062H144.785L144.717 48.0663Z" fill="#94A8B6"/>
<path d="M154.207 42.0781C153.912 42.0355 153.614 42.0127 153.315 42.0098C152.377 42.0098 151.762 42.3259 151.47 42.958V49.0077H148.99V39.7623H151.333L151.402 40.8643C151.592 40.4808 151.887 40.1582 152.253 39.9331C152.618 39.7081 153.04 39.5897 153.47 39.5914C153.731 39.5896 153.992 39.6269 154.242 39.7022L154.207 42.0781Z" fill="#94A8B6"/>
<path d="M159.513 49.1802C158.903 49.2047 158.294 49.1068 157.723 48.8925C157.152 48.6782 156.629 48.3518 156.187 47.9327C155.754 47.497 155.417 46.9767 155.196 46.4047C154.975 45.8326 154.876 45.2212 154.904 44.609V44.3697C154.89 43.509 155.075 42.6565 155.445 41.8786C155.778 41.1774 156.311 40.5891 156.977 40.1867C157.661 39.7845 158.444 39.579 159.238 39.593C159.795 39.5644 160.352 39.6566 160.87 39.8631C161.388 40.0696 161.854 40.3856 162.237 40.7892C162.966 41.5866 163.331 42.7173 163.331 44.1813V45.19H157.419C157.475 45.7458 157.733 46.2622 158.144 46.6422C158.565 47.0134 159.113 47.2092 159.676 47.189C160.105 47.2084 160.533 47.1246 160.922 46.9447C161.312 46.7647 161.653 46.494 161.916 46.1554L163.134 47.5142C162.749 48.0493 162.227 48.4725 161.623 48.7403C160.961 49.0393 160.24 49.1895 159.513 49.1802ZM159.229 41.5837C159.006 41.5755 158.783 41.6159 158.576 41.7018C158.369 41.7878 158.184 41.9174 158.032 42.0817C157.695 42.4858 157.49 42.9829 157.444 43.5065H160.894V43.3092C160.913 42.8434 160.754 42.3879 160.448 42.0348C160.288 41.8788 160.097 41.758 159.887 41.6803C159.677 41.6026 159.453 41.5697 159.229 41.5837Z" fill="#94A8B6"/>
<path d="M168.73 44.2995C168.715 43.452 168.897 42.6125 169.262 41.8469C169.595 41.1524 170.129 40.5723 170.794 40.1805C171.5 39.7775 172.302 39.5738 173.115 39.5911C173.678 39.5692 174.238 39.6592 174.765 39.8558C175.292 40.0524 175.774 40.3517 176.183 40.7361C177.005 41.5678 177.479 42.6797 177.509 43.8464L177.526 44.4787C177.587 45.7273 177.159 46.9508 176.333 47.8922C175.473 48.7166 174.325 49.1775 173.131 49.1783C171.937 49.1791 170.789 48.7198 169.927 47.8966C169.09 46.9329 168.66 45.683 168.73 44.4103V44.2995ZM171.21 44.4748C171.165 45.1815 171.338 45.8849 171.708 46.4899C171.874 46.706 172.088 46.8813 172.333 47.0021C172.579 47.123 172.848 47.1863 173.122 47.1872C173.395 47.188 173.665 47.1264 173.911 47.007C174.157 46.8877 174.372 46.7138 174.539 46.4987C174.93 45.8327 175.107 45.0636 175.046 44.2946C175.088 43.5911 174.912 42.8918 174.539 42.2922C174.382 42.0635 174.169 41.8783 173.919 41.7541C173.67 41.6298 173.394 41.5706 173.115 41.5818C172.84 41.5703 172.566 41.6292 172.32 41.7527C172.073 41.8763 171.863 42.0605 171.708 42.2878C171.328 42.9514 171.154 43.7127 171.21 44.4748V44.4748Z" fill="#94A8B6"/>
<path d="M179.738 48.9984V41.5644H178.357V39.753H179.738V38.9668C179.711 38.5245 179.777 38.0814 179.931 37.6658C180.086 37.2502 180.325 36.8711 180.635 36.5528C181.324 35.947 182.227 35.6382 183.145 35.6939C183.57 35.7049 183.993 35.7622 184.406 35.8648L184.38 37.7789C184.133 37.7234 183.879 37.6977 183.625 37.7022C182.693 37.7022 182.227 38.1379 182.227 39.0093V39.7529H184.071V41.5644H182.227V48.9984H179.738Z" fill="#94A8B6"/>
<path d="M192.052 39.7583L192.129 40.792C192.449 40.398 192.857 40.0839 193.32 39.8747C193.784 39.6656 194.29 39.5672 194.798 39.5874C195.304 39.5424 195.812 39.6536 196.253 39.9057C196.693 40.1579 197.046 40.5389 197.261 40.997C197.565 40.5433 197.982 40.1753 198.47 39.9284C198.959 39.6815 199.503 39.564 200.05 39.5874C200.467 39.555 200.886 39.6169 201.275 39.7686C201.664 39.9203 202.014 40.1579 202.298 40.4634C202.846 41.2294 203.107 42.162 203.036 43.0996V49.0037H200.548V43.1078C200.582 42.7006 200.473 42.2943 200.239 41.9584C200.094 41.823 199.922 41.7205 199.734 41.6578C199.546 41.5952 199.346 41.574 199.149 41.5956C198.811 41.5795 198.476 41.6744 198.197 41.8658C197.918 42.0572 197.71 42.3346 197.605 42.6552L197.613 49.0037H195.133V43.1161C195.169 42.7035 195.057 42.2914 194.815 41.954C194.671 41.8212 194.5 41.7206 194.314 41.6588C194.127 41.597 193.93 41.5755 193.734 41.5957C193.422 41.5771 193.111 41.6496 192.84 41.8043C192.569 41.9591 192.349 42.1893 192.207 42.4667V49.0037H189.726V39.7583H192.052Z" fill="#94A8B6"/>
<path d="M204.552 44.2995C204.537 43.452 204.719 42.6125 205.084 41.8469C205.417 41.1524 205.951 40.5723 206.616 40.1805C207.322 39.7775 208.124 39.5738 208.937 39.5911C209.5 39.5692 210.06 39.6592 210.587 39.8558C211.114 40.0524 211.596 40.3517 212.005 40.7361C212.827 41.5678 213.301 42.6796 213.331 43.8464L213.348 44.4787C213.409 45.7273 212.981 46.9508 212.155 47.8922C211.295 48.7166 210.147 49.1775 208.953 49.1783C207.759 49.1791 206.611 48.7198 205.749 47.8966C204.912 46.9328 204.482 45.683 204.552 44.4103L204.552 44.2995ZM207.032 44.4748C206.987 45.1815 207.161 45.8849 207.53 46.4899C207.697 46.706 207.91 46.8812 208.155 47.0021C208.401 47.123 208.67 47.1863 208.944 47.1871C209.217 47.188 209.487 47.1264 209.733 47.007C209.979 46.8877 210.194 46.7138 210.361 46.4987C210.752 45.8327 210.929 45.0636 210.868 44.2946C210.91 43.5911 210.734 42.8918 210.361 42.2922C210.204 42.0635 209.991 41.8783 209.742 41.7541C209.492 41.6298 209.216 41.5705 208.937 41.5818C208.662 41.5703 208.388 41.6291 208.142 41.7527C207.895 41.8763 207.685 42.0605 207.53 42.2878C207.15 42.9513 206.976 43.7127 207.032 44.4748V44.4748Z" fill="#94A8B6"/>
<path d="M217.156 39.7567L217.233 40.8245C217.548 40.4229 217.954 40.1013 218.418 39.886C218.882 39.6707 219.39 39.5678 219.902 39.5858C220.31 39.5541 220.72 39.6153 221.1 39.7648C221.481 39.9143 221.822 40.1481 222.099 40.4485C222.634 41.1996 222.894 42.1106 222.836 43.0295V49.0021H220.357V43.0891C220.393 42.6791 220.27 42.2707 220.013 41.9485C219.856 41.8166 219.675 41.7172 219.479 41.6563C219.283 41.5954 219.077 41.5743 218.872 41.594C218.553 41.5808 218.237 41.6571 217.959 41.8142C217.681 41.9714 217.454 42.203 217.302 42.4827V49.0021H214.822V39.7567H217.156Z" fill="#94A8B6"/>
<path d="M229 49.1802C228.39 49.2047 227.781 49.1068 227.21 48.8925C226.638 48.6782 226.116 48.3518 225.674 47.9327C225.241 47.497 224.904 46.9767 224.683 46.4047C224.462 45.8326 224.363 45.2212 224.391 44.609V44.3697C224.376 43.509 224.561 42.6565 224.932 41.8786C225.265 41.1774 225.797 40.5891 226.464 40.1867C227.148 39.7845 227.931 39.579 228.725 39.593C229.282 39.5644 229.839 39.6566 230.357 39.8631C230.874 40.0696 231.341 40.3856 231.724 40.7892C232.453 41.5866 232.818 42.7173 232.818 44.1813V45.19H226.906C226.962 45.7458 227.219 46.2622 227.631 46.6422C228.052 47.0134 228.6 47.2092 229.162 47.189C229.592 47.2084 230.019 47.1246 230.409 46.9447C230.799 46.7647 231.14 46.494 231.402 46.1554L232.62 47.5142C232.235 48.0493 231.714 48.4725 231.11 48.7403C230.448 49.0393 229.727 49.1895 229 49.1802ZM228.716 41.5837C228.492 41.5755 228.269 41.6159 228.063 41.7018C227.856 41.7878 227.671 41.9174 227.519 42.0817C227.182 42.4858 226.977 42.9829 226.931 43.5065H230.381V43.3092C230.4 42.8434 230.24 42.3879 229.935 42.0348C229.775 41.8788 229.584 41.758 229.374 41.6803C229.164 41.6026 228.94 41.5697 228.716 41.5837Z" fill="#94A8B6"/>
<path d="M237.576 45.5112L239.293 39.7608H241.953L238.22 50.4417L238.014 50.929C237.803 51.4785 237.425 51.9486 236.933 52.2734C236.441 52.5982 235.858 52.7616 235.268 52.7405C234.896 52.7386 234.526 52.6838 234.17 52.5779V50.7064L234.547 50.7151C234.911 50.7385 235.274 50.6647 235.599 50.5013C235.853 50.3302 236.044 50.0813 236.143 49.7923L236.435 49.0316L233.183 39.7607H235.852L237.576 45.5112Z" fill="#94A8B6"/>
</svg>
