<svg width="332" height="64" viewBox="0 0 332 64" fill="none" xmlns="http://www.w3.org/2000/svg">
<path d="M21.45 52.181C22.8334 52.2086 24.7149 50.9128 26.4857 49.369C31.3554 45.151 38.7705 47.5219 40.2093 53.7524C41.0393 57.3363 39.4346 61.003 36.2803 62.8501C33.0708 64.7247 29.0035 64.2836 26.3197 61.6646C24.5489 59.9278 22.5844 58.8526 20.0666 58.9077C17.7701 58.9629 15.9163 59.9278 14.3115 61.4992C11.7107 64.0631 8.08613 64.6972 4.87658 63.2085C1.72237 61.7473 -0.159094 58.6045 0.0345858 55.0757C0.14526 53.0908 0.919978 51.3539 2.3034 49.8928C6.12166 45.8126 6.12166 41.7876 2.3034 37.7626C-0.767801 34.5095 -0.767801 29.5196 2.3034 26.2665C6.12166 22.2139 6.12166 18.1613 2.3034 14.1362C-0.79547 10.7729 -0.712464 5.64509 2.52475 2.39199C5.67896 -0.750834 10.8253 -0.805972 14.1455 2.28172C17.9085 5.78294 22.0034 6.03106 25.8493 2.58497C29.8889 -1.05409 35.1736 -0.530285 38.4938 2.83309C41.2607 5.64509 45.5216 5.70023 48.7312 3.27419C50.419 2.00603 51.9684 0.572461 54.1542 0.158931C58.5258 -0.723266 63.1188 2.28172 63.9212 6.61C64.8066 11.3242 61.7907 15.8179 57.2531 16.5623C54.3756 17.031 51.8854 16.259 49.7826 14.2189C46.1027 10.6902 41.6757 10.6902 38.0235 14.1914C34.5372 17.5548 29.6122 17.5548 26.126 14.2189C22.6674 10.9107 18.1851 10.6902 14.9756 13.64C11.102 17.1964 10.6593 21.8003 14.0349 25.6324C16.3313 28.2514 17.4381 31.1185 16.3313 34.4819C15.8886 35.8328 14.9756 37.0734 14.0349 38.1761C11.7384 40.8778 11.1573 43.8277 12.5684 46.9981C14.0349 50.2788 16.608 52.181 21.45 52.181Z" fill="#94A8B6"/>
<path d="M226.195 23.1164C226.195 15.4523 226.195 7.95366 226.195 0.317139C228.187 0.317139 230.096 0.317139 232.088 0.317139C232.088 16.8583 232.088 33.4547 232.088 50.1337C230.179 50.1337 228.27 50.1337 226.195 50.1337C226.195 48.7828 226.195 47.432 226.195 45.6951C223.815 48.7001 220.966 50.1888 217.618 50.7954C209.151 52.3668 201.017 46.7979 199.55 38.3068C198.554 32.5725 199.439 27.1966 203.562 22.7856C208.542 17.4097 217.645 16.4448 223.4 20.6077C224.369 21.2693 225.171 22.1791 226.195 23.1164ZM226.195 34.3369C226.167 33.8958 226.14 33.2893 226.084 32.7103C225.586 27.8031 221.879 24.0538 217.175 23.6678C211.586 23.2267 207.353 25.9284 206.052 31.0011C205.665 32.5725 205.527 34.2817 205.665 35.9083C206.025 39.9333 207.851 43.0761 211.78 44.6475C217.59 46.9909 226.167 44.3719 226.195 34.3369Z" fill="#94A8B6"/>
<path d="M332 50.1337C329.039 50.1337 326.328 50.1337 323.506 50.1337C318.83 44.9232 314.071 39.6025 309.146 34.1163C309.146 39.5473 309.146 44.7854 309.146 50.1061C307.043 50.1061 305.106 50.1061 303.086 50.1061C303.086 33.5098 303.086 16.9686 303.086 0.317139C305.023 0.317139 306.932 0.317139 309.007 0.317139C309.007 10.9035 309.007 21.4899 309.007 32.1589C313.545 27.6652 318 23.3094 322.344 19.0087C325.138 19.0087 327.794 19.0087 330.727 19.0087C325.802 23.8056 321.043 28.4372 316.174 33.1514C321.431 38.7478 326.605 44.3167 332 50.1337Z" fill="#94A8B6"/>
<path d="M263.268 41.186C264.762 42.3164 266.173 43.3915 267.805 44.6321C266.892 45.5419 266.118 46.4792 265.177 47.2511C258.094 53.1784 246.169 52.0757 240.912 44.9905C234.714 36.6096 237.121 21.8329 249.461 18.69C259.975 15.9883 267.916 21.9431 268.995 31.8678C269.161 33.4117 269.189 34.9555 269.299 36.6648C260.833 36.6648 252.532 36.6648 244.232 36.6648C243.817 39.4768 245.698 42.6472 248.769 44.3289C251.232 45.7073 253.888 46.1208 256.655 45.6522C259.477 45.1835 261.414 43.2261 263.268 41.186ZM262.797 31.923C262.438 25.8303 259.062 22.6875 253.196 22.8805C248.382 23.0459 244.066 27.319 244.121 31.8954C250.319 31.923 256.517 31.923 262.797 31.923Z" fill="#94A8B6"/>
<path d="M129.989 18.105C139.258 18.0499 146.673 25.3005 146.728 34.4532C146.756 43.6887 139.534 50.9669 130.238 51.022C120.775 51.0771 113.36 43.8542 113.36 34.5635C113.332 25.4107 120.692 18.1326 129.989 18.105ZM119.751 34.3981C119.668 39.0296 121.688 42.6411 125.285 44.4055C130.321 46.8591 136.463 45.0672 138.981 40.4081C141.886 35.0322 140.226 27.7816 135.439 25.0248C128.135 20.8343 119.89 25.7691 119.751 34.3981Z" fill="#94A8B6"/>
<path d="M188.644 50.1148C188.644 44.1875 188.672 38.343 188.644 32.526C188.644 31.3957 188.589 30.2102 188.34 29.1075C187.676 26.0198 185.573 24.09 182.64 23.7316C178.822 23.2629 175.447 24.7241 174.118 27.9496C173.288 29.9345 172.873 32.1676 172.79 34.318C172.597 39.556 172.735 44.794 172.735 50.1148C170.798 50.1148 168.889 50.1148 166.897 50.1148C166.897 39.7765 166.897 29.3832 166.897 18.9071C168.806 18.9071 170.66 18.9071 172.68 18.9071C172.68 20.3958 172.68 21.8569 172.68 23.3456C174.616 20.5061 177.245 18.8244 180.482 18.3282C189.198 16.9497 194.482 21.8569 194.566 29.4383C194.649 36.3029 194.593 43.1951 194.593 50.1423C192.573 50.1148 190.637 50.1148 188.644 50.1148Z" fill="#94A8B6"/>
<path d="M272.765 45.3941C274.204 44.2086 275.643 43.0232 277.109 41.8102C278.078 42.5545 278.963 43.3264 279.959 43.9881C282.698 45.8628 285.659 45.8628 288.647 44.7049C290.003 44.1811 290.999 43.2437 291.137 41.6999C291.276 40.0458 290.335 38.9706 288.979 38.3365C287.651 37.73 286.212 37.3716 284.829 36.9581C283.113 36.4619 281.343 36.0759 279.655 35.497C272.129 32.8779 272.987 24.3041 277.109 20.9407C281.509 17.3568 290.003 17.1087 294.402 20.6926C295.232 21.3818 295.924 22.264 296.782 23.1738C295.122 24.4419 293.6 25.5722 292.023 26.7577C289.671 24.0284 286.766 23.0911 283.307 24.0008C281.868 24.3868 280.623 25.1036 280.402 26.7577C280.153 28.4394 281.038 29.68 282.477 30.2865C284.192 31.0033 286.046 31.4444 287.845 31.9682C289.2 32.3817 290.612 32.6574 291.94 33.1812C294.983 34.3391 297.058 36.4343 297.446 39.7977C297.861 43.3816 296.865 46.4968 293.766 48.5921C289.56 51.4592 284.857 51.5419 280.098 50.5219C276.75 49.7775 274.342 48.0407 272.765 45.3941Z" fill="#94A8B6"/>
<path d="M110.925 23.1262C109.431 24.5046 107.965 25.8279 106.775 26.9031C104.81 25.8831 103.095 24.5598 101.186 24.0635C95.3201 22.5473 90.3951 25.8004 89.15 31.7276C88.6796 34.0158 88.6796 36.2764 89.399 38.5371C91.7232 45.5946 100.245 47.8277 105.723 42.8102C106 42.5621 106.249 42.314 106.526 42.0659C107.909 43.4994 109.265 44.8779 110.621 46.2563C106.415 52.0733 94.5453 52.7349 87.9879 47.3866C81.0708 41.7626 80.4621 29.6875 86.7705 22.9884C92.8852 16.5097 104.7 16.5097 110.925 23.1262Z" fill="#94A8B6"/>
<path d="M152.481 18.9087C154.474 18.9087 156.355 18.9087 158.292 18.9087C158.292 29.3296 158.292 39.6954 158.292 50.144C156.383 50.144 154.474 50.144 152.481 50.144C152.481 39.7506 152.481 29.4123 152.481 18.9087Z" fill="#94A8B6"/>
<path d="M151.019 7.64579C151.019 5.19263 152.9 3.26318 155.335 3.26318C157.769 3.26318 159.706 5.1375 159.706 7.59066C159.706 10.0163 157.797 11.9733 155.39 12.0008C153.011 12.0284 151.047 10.0714 151.019 7.64579Z" fill="#94A8B6"/>
<path d="M32.1051 29.8019C33.7096 29.8295 35.0651 31.2352 35.0374 32.8615C35.0097 34.4877 33.5712 35.8383 31.9668 35.7832C30.3899 35.7281 29.1174 34.3775 29.1174 32.8063C29.1174 31.1525 30.5006 29.7744 32.1051 29.8019Z" fill="#94A8B6"/>
<path d="M55.6703 35.5302C54.0105 35.5026 52.6827 34.1244 52.738 32.4982C52.7933 30.9271 54.1212 29.6316 55.698 29.6316C57.3578 29.6316 58.6856 30.9546 58.6856 32.6085C58.6856 34.2347 57.3025 35.5578 55.6703 35.5302Z" fill="#94A8B6"/>
<path d="M55.763 58.7171C54.1032 58.7446 52.7477 57.4216 52.7477 55.7953C52.7477 54.2242 54.0202 52.9012 55.6247 52.8736C57.3121 52.8185 58.6676 54.0588 58.6953 55.7126C58.7506 57.3389 57.4228 58.6895 55.763 58.7171Z" fill="#94A8B6"/>
</svg>
