<svg width="97" height="32" viewBox="0 0 97 32" fill="none" xmlns="http://www.w3.org/2000/svg">
<path fill-rule="evenodd" clip-rule="evenodd" d="M13.7514 0.0725207C10.8517 0.429593 7.66031 1.92281 4.93875 4.22754C4.38795 4.682 3.23777 5.80191 3.23777 5.86683C3.23777 5.89929 3.78856 6.48359 4.46895 7.16527L5.70014 8.41503L5.18174 8.99933C3.27017 11.158 1.97418 13.3491 1.19659 15.6701C0.710597 17.1308 0.5 18.3319 0.5 19.679C0.5 20.8963 0.661997 21.8864 1.03459 22.844L1.18039 23.2335L4.79295 26.8529C7.80611 29.8718 8.4865 30.521 8.8591 30.7645C9.63669 31.2839 10.5439 31.641 11.5483 31.852C12.2125 31.998 13.7514 32.0467 14.4804 31.9493C17.364 31.5923 20.3448 30.2289 22.9529 28.054C23.6333 27.4859 24.7835 26.3985 24.7835 26.3336C24.7835 26.3011 24.2165 25.7168 23.5361 25.0189L22.2887 23.7529L22.6775 23.3471C23.6333 22.3408 24.7997 20.734 25.4801 19.468C26.4521 17.6989 27.0839 15.7837 27.2945 14.0308C27.3755 13.268 27.3269 11.6449 27.1973 11.0281C26.9705 9.98939 26.6141 9.1454 26.0795 8.33388C25.8041 7.91188 25.2533 7.34381 22.2077 4.27624L18.6438 0.705514L18.2712 0.559437C17.769 0.34844 16.7322 0.104982 16.1004 0.0400601C15.4686 -0.0248621 14.4804 -0.00863205 13.7514 0.0725207ZM16.8132 1.03013C17.0724 1.09505 17.4936 1.19243 17.7204 1.27358C18.1416 1.41966 18.1578 1.41966 18.822 2.08511C19.4052 2.66941 19.4862 2.75056 19.3404 2.73433C18.5628 2.58826 17.3154 2.5558 16.3434 2.68564C13.233 3.07517 10.0255 4.64954 7.07712 7.24643C6.78552 7.50611 6.52633 7.73334 6.47773 7.76581C6.42913 7.79827 6.16993 7.58727 5.40854 6.82443L4.40415 5.81814L5.05214 5.25007C7.75751 2.88041 10.7383 1.3872 13.6542 0.965201C14.4318 0.851587 16.1652 0.900281 16.8132 1.03013ZM21.0575 6.19144C22.4831 6.40244 23.7305 7.0192 24.6539 7.94434C25.5611 8.85325 26.1443 10.0219 26.4197 11.4826C26.5331 12.1318 26.5331 13.5926 26.4197 14.3554C26.0471 16.7088 24.9617 19.1272 23.2769 21.3346C22.8881 21.8539 21.9647 22.9414 21.8189 23.055C21.7379 23.1199 21.6407 23.0388 20.7983 22.1948C20.28 21.6754 19.8588 21.2372 19.8588 21.2209C19.8588 21.2047 20.0046 21.0262 20.1828 20.8314C23.1149 17.5853 24.4919 13.5277 23.5199 11.0119C23.1311 10.0381 22.3211 9.30771 21.2681 8.9831C20.7336 8.82079 19.794 8.73964 19.0974 8.82079C18.0282 8.91818 16.716 9.34017 15.4524 9.95693C14.1888 10.5737 13.0386 11.3528 11.9209 12.3591L11.4187 12.7973L10.4629 11.8397L9.50709 10.8821L9.91208 10.5088C12.3907 8.1878 15.6792 6.53228 18.498 6.15898C19.065 6.11029 20.523 6.11029 21.0575 6.19144ZM7.66031 11.791C7.30392 12.1967 6.85032 12.7648 6.62352 13.057C3.93436 16.6439 2.70317 20.5393 3.20537 23.899L3.23777 24.11L2.57357 23.4608C1.94178 22.844 1.90938 22.7953 1.77978 22.4058C0.5162 18.7701 2.10378 13.7549 5.84593 9.55117L6.28333 9.06425L7.28772 10.0705L8.2921 11.0768L7.66031 11.791ZM20.3124 9.71347L20.442 9.74593L20.4096 10.4276C20.3772 11.2391 20.2638 11.9046 20.1018 12.4727C19.5834 14.1769 18.6276 15.8811 17.2344 17.4879L16.6998 18.1047L15.6792 17.0821L14.6586 16.0596L15.1284 15.5402C16.1328 14.4366 17.0562 13.1544 17.6232 12.0669C17.931 11.4826 18.336 10.4925 18.4494 10.0381C18.5142 9.76216 18.5142 9.76217 18.7572 9.7297C18.8868 9.71347 19.0326 9.69724 19.0812 9.68101C19.2108 9.68101 20.199 9.68101 20.3124 9.71347ZM17.4126 10.4276C17.1858 11.0606 16.6836 12.0344 16.1976 12.7648C15.663 13.5763 15.2904 14.0633 14.5452 14.9073L14.0268 15.5078L13.0062 14.4853L11.9857 13.4627L12.3259 13.1543C13.3788 12.213 14.61 11.369 15.744 10.7847C16.3596 10.4763 17.364 10.0705 17.5098 10.0543C17.526 10.0543 17.4936 10.2166 17.4126 10.4276ZM32.932 11.0444C32.8834 11.0931 32.8672 12.4402 32.8672 17.3743C32.8672 23.3796 32.8672 23.6393 32.9644 23.7204C33.0454 23.8016 33.3046 23.8016 35.4916 23.8016C36.8199 23.8016 38.2617 23.7691 38.6829 23.7529C40.3839 23.6393 41.6961 23.0874 42.7005 22.0812C43.4943 21.2859 43.9965 20.1822 44.2557 18.7214C44.3691 18.0073 44.3691 16.5141 44.2557 15.8162C43.8345 13.4627 42.4899 11.9371 40.3353 11.3203C39.2823 11.0281 39.2013 11.0119 35.9938 10.9957C33.6124 10.9957 32.9806 10.9957 32.932 11.0444ZM91.9155 11.2554C91.8669 11.3041 91.8507 11.7098 91.8507 12.7486V14.1769H91.2351C90.8301 14.1769 90.6033 14.1931 90.5547 14.2418C90.4737 14.3229 90.4737 16.0109 90.5547 16.1083C90.6033 16.157 90.8301 16.1732 91.2351 16.1732H91.8507L91.8669 19.0623C91.8831 21.8864 91.8831 21.9675 91.9965 22.2922C92.3043 23.1848 92.936 23.6718 93.9566 23.8016C94.6532 23.8827 95.6414 23.8503 96.3218 23.7204L96.4676 23.688L96.4514 22.5032L96.4352 21.3183L95.7872 21.2859C95.0906 21.2534 94.9772 21.2209 94.8962 21.0749C94.8638 21.0099 94.8476 20.0361 94.8476 18.5916V16.2057L95.6738 16.1895L96.5 16.1732V15.1832V14.1931L95.6738 14.1769L94.8476 14.1606V12.7648C94.8476 11.9046 94.8314 11.3365 94.799 11.2716C94.7504 11.1742 94.6694 11.1742 93.3734 11.1742C92.3529 11.2067 91.9641 11.2229 91.9155 11.2554ZM38.8935 13.9983C39.8817 14.258 40.5297 14.9559 40.7889 15.9785C40.9833 16.7575 40.9833 18.056 40.7727 18.8675C40.5621 19.6628 40.0761 20.2958 39.4281 20.6042C38.8611 20.8801 38.5209 20.9288 37.3545 20.9612L36.3016 20.9937V17.423V13.8523L37.4355 13.8847C38.2617 13.901 38.6667 13.9334 38.8935 13.9983ZM48.7916 14.0633C47.1716 14.3554 45.9242 15.4266 45.3734 16.9848C44.6445 19.0298 45.0009 21.367 46.232 22.6817C46.88 23.3634 47.4956 23.7204 48.4352 23.9639C50.2334 24.4184 52.1612 23.9477 53.4409 22.7466C53.7487 22.4707 54.5425 21.4644 54.5425 21.367C54.5425 21.2534 54.3157 21.1073 53.3923 20.6366C52.8254 20.3445 52.3556 20.101 52.3394 20.101C52.3232 20.101 52.226 20.2471 52.1288 20.4256C51.902 20.8639 51.4322 21.3508 51.092 21.5293C50.0714 22.0325 48.8726 21.7403 48.3542 20.8639C48.2084 20.6042 48.0626 20.1497 48.0626 19.9063V19.7277H51.3026C53.7487 19.7277 54.5425 19.7115 54.5911 19.6628C54.6721 19.5816 54.6721 18.9324 54.5749 18.2832C54.3157 16.5465 53.5867 15.2968 52.4204 14.5989C52.0316 14.3716 51.2864 14.112 50.8004 14.0308C50.3144 13.9496 49.2776 13.9659 48.7916 14.0633ZM59.4349 13.9983C58.9813 14.0633 58.6087 14.1444 58.3171 14.2418C56.6809 14.7612 55.5955 16.1083 55.2553 18.0235C55.1257 18.7539 55.1743 19.9225 55.3525 20.6204C55.5955 21.5618 55.9519 22.1785 56.5999 22.7953C57.1669 23.3309 57.8311 23.7042 58.7221 23.9477C58.9813 24.0288 59.2405 24.0451 59.9047 24.0451C60.6661 24.0451 60.7795 24.0288 61.2006 23.899C62.043 23.6393 62.691 23.2498 63.2742 22.633C63.663 22.2272 64.1004 21.6267 64.1004 21.4969C64.1004 21.4482 64.0194 21.367 63.9384 21.3021C63.5982 21.0911 62.0268 20.312 61.9458 20.312C61.8972 20.312 61.8162 20.4256 61.7352 20.5879C61.5408 21.0099 61.2816 21.2859 60.8767 21.4806C60.5689 21.6267 60.4717 21.6592 60.1315 21.6429C59.6779 21.6429 59.3863 21.5293 59.0137 21.2047C58.0417 20.3445 57.9769 17.9586 58.9003 16.8711C59.4835 16.1895 60.5689 16.1895 61.2654 16.8549C61.3788 16.9685 61.5408 17.1795 61.6218 17.3256C61.7028 17.4717 61.8 17.6015 61.8486 17.6015C61.962 17.634 63.9546 16.4816 63.987 16.368C64.0032 16.2706 63.7926 15.946 63.4848 15.5565C62.9826 14.9397 61.9944 14.3392 61.1359 14.1444C60.6985 14.0308 59.7589 13.9659 59.4349 13.9983ZM85.4193 14.112C84.8847 14.2093 84.3988 14.4041 84.01 14.6963L83.7022 14.9235L83.686 14.5989L83.6698 14.2743L82.4224 14.258C81.3208 14.2418 81.1588 14.258 81.0778 14.3392C80.9806 14.4203 80.9806 14.6638 80.9806 20.6691C80.9806 25.4571 80.9968 26.9179 81.0454 26.9666C81.1426 27.0639 83.8642 27.0639 83.9452 26.9666C83.9938 26.9179 84.01 26.4309 84.01 25.1163V23.3309L84.5122 23.5906C85.1925 23.9314 85.6137 24.0126 86.4075 23.9801C87.3309 23.9314 87.8817 23.7529 88.4811 23.2984C89.3235 22.6655 89.8743 21.6916 90.1821 20.3445C90.3441 19.6303 90.3441 18.3806 90.1821 17.6178C89.9715 16.6115 89.6313 15.9298 89.0157 15.2806C88.1085 14.2743 86.7801 13.8685 85.4193 14.112ZM12.3583 15.0696C13.233 15.946 13.2816 16.0109 13.2168 16.1083C13.1682 16.157 12.9576 16.4005 12.7308 16.6601C11.8237 17.6989 10.9813 18.9649 10.4143 20.1335C10.0093 20.9612 9.76629 21.6429 9.52329 22.5681C9.21549 23.7854 9.21549 25.1325 9.55569 26.0739C10.1875 27.8592 11.8561 28.7032 14.1888 28.4273C16.4406 28.1514 19.0326 26.8529 21.2519 24.889L21.7217 24.467L22.6775 25.4247L23.6333 26.3823L23.2283 26.7556C21.1547 28.687 18.3846 30.2614 15.987 30.8457C15.015 31.0891 14.3346 31.1703 13.4112 31.1703C12.1801 31.1703 11.2729 31.008 10.3171 30.586C9.08589 30.0504 7.95191 28.9954 7.36871 27.8268C6.63972 26.3823 6.42913 24.5969 6.75312 22.6655C7.20672 19.9712 8.7133 17.0821 10.9327 14.5989C11.1595 14.3392 11.3701 14.1282 11.3863 14.1282C11.4025 14.1282 11.8399 14.5502 12.3583 15.0696ZM69.9971 14.1931C69.3653 14.2905 68.5716 14.5826 68.0532 14.9235L67.8912 15.0371V14.6963C67.8912 14.5015 67.8588 14.3392 67.8264 14.2905C67.7778 14.2418 67.4052 14.2256 66.4494 14.2256C65.2506 14.2256 65.121 14.2256 65.0562 14.3229C64.9752 14.4041 64.9752 14.8099 64.9752 19.0298C64.9752 23.4283 64.9752 23.6393 65.0724 23.7204C65.1534 23.8016 65.3316 23.8016 66.498 23.8016C67.5348 23.8016 67.8426 23.7854 67.8912 23.7367C67.9236 23.688 67.956 22.7304 67.956 20.7665C67.9722 18.0397 67.9722 17.845 68.0694 17.6664C68.2638 17.2769 68.604 17.1146 69.5921 16.9523C69.9647 16.8874 70.3373 16.8225 70.4183 16.8062L70.5641 16.7738V15.5078C70.5641 14.2418 70.5479 14.0957 70.3859 14.1282C70.3211 14.1444 70.1591 14.1606 69.9971 14.1931ZM71.3255 14.3067C71.2931 14.3554 71.2769 14.4366 71.2931 14.5177C71.3093 14.5826 71.7467 16.0109 72.2651 17.6664C74.3387 24.3534 74.2253 23.9639 74.0795 24.2236C73.9499 24.4833 73.7231 24.532 72.9131 24.532C72.4109 24.532 72.1517 24.5482 72.1193 24.5969C72.0707 24.6456 72.0545 24.9702 72.0545 25.7655C72.0545 26.5608 72.0707 26.8854 72.1193 26.9341C72.2003 27.0152 74.2577 27.0152 74.7923 26.9503C75.6833 26.8205 76.4123 26.1875 76.8334 25.1812C76.9306 24.9702 77.7568 22.4545 78.6802 19.5979C80.0896 15.2806 80.365 14.3879 80.3002 14.3229C80.2516 14.258 80.0086 14.2418 78.7288 14.2418H77.2222L77.1737 14.469C77.1413 14.5989 76.8335 15.946 76.4771 17.4879C76.1207 19.0298 75.8291 20.312 75.7967 20.3283C75.7805 20.3445 75.4403 18.9811 75.0677 17.3094L74.3711 14.2418H72.8645C71.6171 14.2418 71.3741 14.2418 71.3255 14.3067ZM50.6384 16.3355C51.1244 16.5628 51.4484 17.001 51.5456 17.5366L51.578 17.7314H49.8446H48.1112L48.1436 17.5691C48.2084 17.2769 48.4838 16.8062 48.7106 16.6115C49.0994 16.2706 49.4396 16.157 49.9742 16.1895C50.2334 16.2057 50.4278 16.2544 50.6384 16.3355ZM86.3913 16.4167C86.8449 16.6601 87.1851 17.1633 87.3471 17.845C87.4605 18.3481 87.4605 19.5492 87.3309 20.0523C87.2175 20.4906 86.9907 20.945 86.7477 21.2534C86.3589 21.7241 85.5975 21.8539 84.982 21.5455C84.2692 21.1885 83.929 20.3932 83.929 19.0623C83.929 17.8288 84.253 16.9523 84.8523 16.5141C85.3221 16.1895 85.8891 16.157 86.3913 16.4167ZM15.5334 19.046C14.205 20.2958 12.5041 21.4157 11.0947 21.9838C10.8031 22.0974 10.5439 22.1948 10.5277 22.1948C10.5115 22.1948 10.5763 22.0162 10.6573 21.789C11.2729 20.0848 12.3421 18.3481 13.6218 16.9685L13.9296 16.6439L14.9502 17.6502L15.9708 18.6565L15.5334 19.046ZM17.5746 20.312L18.5628 21.3021L18.255 21.5942C16.635 23.1199 14.1402 24.4995 12.3745 24.8728C11.9371 24.9702 10.9651 25.0676 10.4953 25.0676H10.1875V24.321C10.1875 23.9152 10.2037 23.477 10.2199 23.3796L10.2523 23.1848L10.8841 22.9738C12.4879 22.4545 14.529 21.1722 16.0356 19.744C16.2786 19.5167 16.5054 19.322 16.5378 19.322C16.5702 19.322 17.04 19.7602 17.5746 20.312Z" fill="#94A8B6"/>
</svg>
