<svg width="114" height="28" viewBox="0 0 114 28" fill="none" xmlns="http://www.w3.org/2000/svg">
<g clip-path="url(#clip0_4163_56978)">
<g clip-path="url(#clip1_4163_56978)">
<path d="M14.6833 6.87908V21.1823C14.6833 22.7911 15.3222 24.3341 16.4596 25.4717C17.597 26.6093 19.1396 27.2484 20.7481 27.2484C22.3566 27.2484 23.8992 26.6093 25.0366 25.4717C26.1739 24.3341 26.8129 22.7911 26.8129 21.1823V6.87908C26.8129 5.27025 26.1739 3.72732 25.0366 2.58971C23.8992 1.45209 22.3566 0.812988 20.7481 0.812988C19.1396 0.812988 17.597 1.45209 16.4596 2.58971C15.3222 3.72732 14.6833 5.27025 14.6833 6.87908V6.87908ZM19.0244 21.1823V6.87908C19.0218 6.64932 19.0672 6.42156 19.1579 6.21041C19.2485 5.99927 19.3823 5.80943 19.5506 5.65308C19.7189 5.49673 19.9181 5.37733 20.1353 5.30256C20.3526 5.22778 20.583 5.19928 20.8119 5.21889C21.0318 5.21179 21.2508 5.24987 21.4554 5.33079C21.66 5.41171 21.8458 5.53375 22.0014 5.68935C22.157 5.84495 22.279 6.03081 22.3599 6.23545C22.4408 6.44008 22.4789 6.65914 22.4718 6.87908V21.1823C22.4652 21.6206 22.2882 22.039 21.9783 22.3489C21.6685 22.6589 21.2501 22.8359 20.8119 22.8425C20.5855 22.851 20.3597 22.8148 20.1473 22.736C19.9349 22.6572 19.7401 22.5372 19.5741 22.383C19.408 22.2288 19.274 22.0434 19.1797 21.8374C19.0854 21.6314 19.0326 21.4087 19.0244 21.1823V21.1823ZM61.7974 1.13226H49.54V5.4743H53.4981V26.8014H57.8393V5.4743H61.7974V1.13226ZM74.5654 1.13226V21.1823C74.5654 21.6226 74.3905 22.0449 74.0792 22.3562C73.768 22.6676 73.3458 22.8425 72.9056 22.8425C72.4653 22.8425 72.0431 22.6676 71.7319 22.3562C71.4206 22.0449 71.2457 21.6226 71.2457 21.1823V1.13226H66.7769V21.1823C66.7769 22.8081 67.4226 24.3672 68.5719 25.5168C69.7213 26.6664 71.2801 27.3122 72.9056 27.3122C74.531 27.3122 76.0898 26.6664 77.2392 25.5168C78.3885 24.3672 79.0342 22.8081 79.0342 21.1823V1.13226H74.5654ZM114.274 5.4743V1.13226H103.549V26.8014H114.274V22.4594H107.89V15.8186H111.976V11.4765H107.89V5.4743H114.274ZM45.4542 26.8014H40.8578L37.6657 14.6692C38.4621 14.5116 39.1786 14.0809 39.6914 13.4514C40.2042 12.8219 40.4812 12.0331 40.4747 11.2211V7.2622C40.4799 7.02598 40.4373 6.79114 40.3493 6.57186C40.2613 6.35258 40.1298 6.15339 39.9628 5.98632C39.7958 5.81924 39.5966 5.68774 39.3774 5.59974C39.1581 5.51174 38.9234 5.46907 38.6872 5.4743H37.0273V26.8014H32.6862V1.13226H38.6872C40.2731 1.11803 41.8017 1.72443 42.9468 2.82201C44.0919 3.91958 44.7626 5.42138 44.8158 7.00679V11.0934C44.8742 12.154 44.6854 13.2136 44.2644 14.1887C43.8434 15.1638 43.2017 16.0278 42.3899 16.7125L45.4542 26.8014ZM93.8452 1.13226V15.1801L89.3763 1.13226H84.9075V26.8014H89.3763V14.2861L93.4621 26.8014H98.314V1.13226H93.8452ZM0 1.51538V27.1845H4.5965V16.2017H8.80995V11.8597H4.5965V5.85742H11.2359V1.51538H0Z" fill="#94A8B6"/>
</g>
</g>
<defs>
<clipPath id="clip0_4163_56978">
<rect width="114" height="28" fill="white"/>
</clipPath>
<clipPath id="clip1_4163_56978">
<rect width="114.274" height="26.3077" fill="white" transform="translate(0 0.876953)"/>
</clipPath>
</defs>
</svg>
