<svg width="130" height="32" viewBox="0 0 130 32" fill="none" xmlns="http://www.w3.org/2000/svg">
<path d="M33.9805 11.3401H47.0599V13.7949H41.9101V27.6334H39.0873V13.7949H33.959L33.9805 11.3401ZM46.4997 15.837H48.913V18.1181H48.9561C49.0423 17.7922 49.1932 17.4881 49.4086 17.1839C49.6241 16.8798 49.8827 16.5974 50.2059 16.3584C50.5076 16.0977 50.8523 15.9022 51.2402 15.7501C51.6065 15.5981 51.9944 15.5112 52.3822 15.5112C52.6839 15.5112 52.8994 15.5329 53.0071 15.5329C53.1148 15.5546 53.2441 15.5763 53.3519 15.5763V18.0746C53.1795 18.0312 52.9856 18.0095 52.7916 17.9877C52.5977 17.966 52.4253 17.9443 52.2314 17.9443C51.8004 17.9443 51.391 18.0312 51.0032 18.205C50.6153 18.3788 50.2921 18.6395 49.9904 18.9653C49.7103 19.3129 49.4733 19.7257 49.3009 20.2254C49.1285 20.725 49.0423 21.3116 49.0423 21.9633V27.5682H46.4566L46.4997 15.837ZM65.2031 27.6334H62.6604V25.9823H62.6173C62.2941 26.5906 61.8201 27.0468 61.1952 27.4161C60.5703 27.7854 59.9239 27.9592 59.2775 27.9592C57.7476 27.9592 56.6271 27.5899 55.9376 26.8078C55.2481 26.0475 54.9033 24.8744 54.9033 23.3319V15.837H57.489V23.0712C57.489 24.114 57.6829 24.8526 58.0923 25.2654C58.4802 25.6999 59.0404 25.9171 59.7515 25.9171C60.2902 25.9171 60.7427 25.8302 61.109 25.6564C61.4753 25.4826 61.777 25.2654 61.9925 24.983C62.2295 24.7006 62.3803 24.353 62.4881 23.9619C62.5958 23.5709 62.6389 23.1364 62.6389 22.6802V15.837H65.2246V27.6334H65.2031ZM69.5988 23.8533C69.685 24.6137 69.9651 25.1351 70.4607 25.4609C70.9563 25.7651 71.5596 25.9171 72.2491 25.9171C72.4862 25.9171 72.7663 25.8954 73.068 25.852C73.3696 25.8085 73.6713 25.7433 73.9299 25.6347C74.21 25.5261 74.4255 25.374 74.5978 25.1568C74.7702 24.9395 74.8564 24.6788 74.8349 24.353C74.8133 24.0271 74.7056 23.7447 74.4686 23.5275C74.2315 23.3102 73.9514 23.1581 73.6066 23.0061C73.2619 22.8757 72.8525 22.7671 72.4 22.6802C71.9475 22.5933 71.495 22.4847 71.0209 22.3761C70.5469 22.2674 70.0728 22.1371 69.6203 21.985C69.1678 21.833 68.78 21.6374 68.4137 21.355C68.0689 21.0943 67.7672 20.7685 67.5733 20.3557C67.3578 19.9429 67.2501 19.465 67.2501 18.8567C67.2501 18.205 67.4009 17.6836 67.7241 17.2491C68.0258 16.8146 68.4352 16.467 68.9093 16.2063C69.3833 15.9457 69.922 15.7501 70.5038 15.6415C71.0856 15.5329 71.6458 15.4894 72.163 15.4894C72.7663 15.4894 73.3481 15.5546 73.8868 15.685C74.4255 15.8153 74.9426 16.0108 75.3736 16.315C75.826 16.5974 76.1924 16.9884 76.4725 17.4446C76.7741 17.9008 76.9465 18.4657 77.0327 19.1174H74.3393C74.21 18.4874 73.9299 18.0746 73.4989 17.8574C73.0464 17.6402 72.5508 17.5315 71.969 17.5315C71.7966 17.5315 71.5596 17.5533 71.3226 17.575C71.064 17.6184 70.8485 17.6619 70.6115 17.7488C70.396 17.8357 70.2021 17.966 70.0513 18.1181C69.9005 18.2702 69.8143 18.4874 69.8143 18.7481C69.8143 19.074 69.922 19.3129 70.1375 19.5084C70.353 19.704 70.6331 19.856 70.9994 20.0081C71.3441 20.1385 71.7535 20.2471 72.2061 20.334C72.6586 20.4209 73.1326 20.5295 73.6066 20.6381C74.0807 20.7467 74.5332 20.8771 74.9857 21.0292C75.4382 21.1812 75.8476 21.3767 76.1924 21.6592C76.5371 21.9199 76.8388 22.2457 77.0543 22.6368C77.2697 23.0278 77.3775 23.5275 77.3775 24.0923C77.3775 24.7875 77.2266 25.374 76.9034 25.8737C76.5802 26.3516 76.1708 26.7644 75.6752 27.0685C75.1796 27.3727 74.5978 27.5899 73.9945 27.742C73.3696 27.8723 72.7663 27.9592 72.163 27.9592C71.4303 27.9592 70.7408 27.8723 70.1159 27.6985C69.491 27.5247 68.9308 27.264 68.4783 26.9382C68.0258 26.5906 67.6595 26.1778 67.4009 25.6564C67.1423 25.1568 66.9915 24.5485 66.97 23.8316H69.5772V23.8533H69.5988ZM78.1101 15.837H80.0709V12.2742H82.6567V15.8153H84.9838V17.7488H82.6567V24.0488C82.6567 24.3313 82.6782 24.5485 82.6997 24.7657C82.7213 24.9613 82.7859 25.1351 82.8506 25.2654C82.9368 25.3957 83.0661 25.5044 83.2169 25.5695C83.3893 25.6347 83.6048 25.6782 83.9064 25.6782C84.0788 25.6782 84.2727 25.6782 84.4451 25.6564C84.6175 25.6347 84.8114 25.613 84.9838 25.5695V27.5899C84.7037 27.6334 84.4236 27.6551 84.1434 27.6768C83.8633 27.7203 83.6048 27.7203 83.3031 27.7203C82.6136 27.7203 82.0749 27.6551 81.6655 27.5247C81.2561 27.3944 80.9328 27.1989 80.6958 26.9599C80.4588 26.6992 80.308 26.3951 80.2218 26.0258C80.1356 25.6564 80.0925 25.2002 80.0709 24.7223V17.7705H78.1101V15.7936V15.837ZM86.7938 15.837H89.2287V17.4446H89.2718C89.6381 16.7494 90.1337 16.2715 90.7801 15.9674C91.4265 15.6632 92.1161 15.5112 92.8918 15.5112C93.8183 15.5112 94.6156 15.6632 95.3051 16.0108C95.9946 16.3367 96.5549 16.7712 97.0074 17.3577C97.4599 17.9226 97.8046 18.596 98.0201 19.3564C98.2356 20.1167 98.3649 20.9423 98.3649 21.7895C98.3649 22.5933 98.2571 23.3537 98.0632 24.0923C97.8477 24.8309 97.5461 25.5044 97.1367 26.0692C96.7273 26.634 96.2101 27.0902 95.5637 27.4378C94.9173 27.7854 94.1846 27.9592 93.3227 27.9592C92.9564 27.9592 92.5686 27.9158 92.2023 27.8506C91.8359 27.7854 91.4696 27.6768 91.1249 27.5247C90.7801 27.3727 90.4569 27.1771 90.1768 26.9382C89.8751 26.6992 89.6381 26.4168 89.4442 26.1127H89.4011V32H86.8153V15.837H86.7938ZM95.8223 21.7461C95.8223 21.2247 95.7576 20.7033 95.6068 20.2036C95.4775 19.704 95.262 19.2695 94.9819 18.8784C94.7018 18.4874 94.357 18.1833 93.9692 17.9443C93.5598 17.7053 93.0857 17.5967 92.5686 17.5967C91.4912 17.5967 90.6724 17.966 90.1121 18.7264C89.5735 19.4867 89.2933 20.5078 89.2933 21.7678C89.2933 22.3761 89.358 22.9192 89.5088 23.4188C89.6596 23.9185 89.8536 24.353 90.1552 24.7223C90.4354 25.0916 90.7801 25.374 91.1895 25.5913C91.5989 25.8085 92.0514 25.9171 92.5901 25.9171C93.1935 25.9171 93.6675 25.7868 94.0769 25.5478C94.4863 25.3089 94.8095 24.983 95.0896 24.6137C95.3482 24.2226 95.5421 23.7881 95.6499 23.2885C95.7576 22.7671 95.8223 22.2674 95.8223 21.7461ZM100.369 11.3401H102.955V13.7949H100.369V11.3401ZM100.369 15.837H102.955V27.6334H100.369V15.837ZM105.26 11.3401H107.846V27.6334H105.26V11.3401ZM115.732 27.9592C114.806 27.9592 113.965 27.8072 113.233 27.4813C112.5 27.1554 111.897 26.7427 111.38 26.1996C110.884 25.6564 110.496 24.983 110.238 24.2226C109.979 23.4623 109.828 22.615 109.828 21.7243C109.828 20.8336 109.958 20.0081 110.238 19.2478C110.496 18.4874 110.884 17.8357 111.38 17.2708C111.875 16.7277 112.5 16.2932 113.233 15.9891C113.965 15.685 114.806 15.5112 115.732 15.5112C116.659 15.5112 117.499 15.6632 118.232 15.9891C118.964 16.2932 119.568 16.7277 120.085 17.2708C120.581 17.8139 120.968 18.4874 121.227 19.2478C121.486 20.0081 121.636 20.8336 121.636 21.7243C121.636 22.6368 121.507 23.4623 121.227 24.2226C120.947 24.983 120.581 25.6347 120.085 26.1996C119.589 26.7427 118.964 27.1771 118.232 27.4813C117.499 27.7854 116.68 27.9592 115.732 27.9592ZM115.732 25.8954C116.293 25.8954 116.81 25.7651 117.219 25.5261C117.65 25.2871 117.973 24.9613 118.253 24.5702C118.533 24.1792 118.727 23.723 118.857 23.245C118.986 22.7454 119.051 22.2457 119.051 21.7243C119.051 21.2247 118.986 20.725 118.857 20.2254C118.727 19.7257 118.533 19.2912 118.253 18.9002C117.973 18.5091 117.628 18.205 117.219 17.966C116.788 17.7271 116.293 17.5967 115.732 17.5967C115.172 17.5967 114.655 17.7271 114.245 17.966C113.815 18.205 113.491 18.5309 113.211 18.9002C112.931 19.2912 112.737 19.7257 112.608 20.2254C112.479 20.725 112.414 21.2247 112.414 21.7243C112.414 22.2457 112.479 22.7454 112.608 23.245C112.737 23.7447 112.931 24.1792 113.211 24.5702C113.491 24.9613 113.836 25.2871 114.245 25.5261C114.676 25.7868 115.172 25.8954 115.732 25.8954ZM122.412 15.837H124.373V12.2742H126.959V15.8153H129.286V17.7488H126.959V24.0488C126.959 24.3313 126.98 24.5485 127.002 24.7657C127.023 24.9613 127.088 25.1351 127.153 25.2654C127.239 25.3957 127.368 25.5044 127.519 25.5695C127.691 25.6347 127.907 25.6782 128.208 25.6782C128.381 25.6782 128.575 25.6782 128.747 25.6564C128.919 25.6347 129.113 25.613 129.286 25.5695V27.5899C129.006 27.6334 128.726 27.6551 128.445 27.6768C128.165 27.7203 127.907 27.7203 127.605 27.7203C126.916 27.7203 126.377 27.6551 125.967 27.5247C125.558 27.3944 125.235 27.1989 124.998 26.9599C124.761 26.6992 124.61 26.3951 124.524 26.0258C124.438 25.6564 124.394 25.2002 124.373 24.7223V17.7705H122.412V15.7936V15.837Z" fill="#ffffff"/>
<path d="M30.964 11.3401H19.1343L15.4928 0L11.8297 11.3401L0 11.3184L9.56716 18.3354L5.90406 29.6755L15.4712 22.6585L25.0384 29.6755L21.3968 18.3354L30.964 11.3401Z" fill="#ffffff"/>
<path d="M22.2155 20.8988L21.3967 18.3353L15.4927 22.6585L22.2155 20.8988Z" fill="white"/>
</svg>
