<svg width="83" height="32" viewBox="0 0 83 32" fill="none" xmlns="http://www.w3.org/2000/svg">
<path d="M49.7856 11.9755H47.349C47.349 14.3312 45.7166 16.0921 43.351 16.0921H41.2337V7.26416H38.7969V24.5353H41.2337V18.4595H43.3746C45.7284 18.4945 47.349 20.0105 47.349 22.4711V24.5236H49.7856V22.3895C49.7856 19.9055 48.3544 18.1096 46.6511 17.27C48.3544 16.4303 49.7856 14.1796 49.7856 11.9755Z" fill="#ffffff"/>
<path d="M14.2042 11.8123C12.5009 11.8123 11.0579 12.512 10.0998 13.4099V7.26416H7.66309V24.5353H10.0998V23.1125C11.0579 24.0105 12.5009 24.6869 14.2042 24.6869C17.8238 24.6869 20.7572 21.8298 20.7572 18.2612C20.7572 14.6927 17.8238 11.8123 14.2042 11.8123ZM14.2042 22.3312C11.9332 22.3312 10.0879 20.5236 10.0879 18.2612C10.0879 15.9988 11.9332 14.1796 14.2042 14.1796C16.4753 14.1796 18.2969 16.0222 18.2969 18.2612C18.2969 20.5003 16.4753 22.3312 14.2042 22.3312Z" fill="#ffffff"/>
<path d="M0 32H82.7995V0H0V32ZM2.43667 2.36735H80.3508V29.6327H2.43667V2.36735Z" fill="#ffffff"/>
<path d="M63.8259 11.9755H61.389C61.389 14.3312 59.7569 16.0921 57.391 16.0921H55.2737V7.26416H52.8372V24.5353H55.2737V18.4595H57.4147C59.7687 18.4945 61.389 20.0105 61.389 22.4711V24.5236H63.8259V22.3895C63.8259 19.9055 62.3945 18.1096 60.6913 17.27C62.3945 16.4303 63.8259 14.1796 63.8259 11.9755Z" fill="#ffffff"/>
<path d="M32.9877 13.411C32.0296 12.5131 30.5863 11.8134 28.8829 11.8134C25.2636 11.8134 22.3301 14.6938 22.3301 18.2507C22.3301 21.8075 25.2636 24.6763 28.8829 24.6763C30.5982 24.6763 32.0296 23.9999 32.9877 23.102V24.5247H35.4242V11.9766H32.9877V13.411ZM28.8829 22.3323C26.6119 22.3323 24.7904 20.5014 24.7904 18.2623C24.7904 16.0233 26.6119 14.1807 28.8829 14.1807C31.1542 14.1807 32.9995 15.9999 32.9995 18.2623C32.9995 20.5247 31.1542 22.3323 28.8829 22.3323Z" fill="#ffffff"/>
<path d="M71.8442 9.23638V8.04688H69.4074V9.07313C69.4074 10.8107 68.2127 11.9886 66.4505 11.9886H65.9062V14.3443H68.8397V19.837C68.8397 22.7991 70.6022 24.5367 73.6067 24.5367H74.9551V22.1693H73.6895C72.1162 22.1693 71.2763 21.353 71.2763 19.7554V14.3443H75.1324V11.9769H70.756C71.501 11.2772 71.8442 10.251 71.8442 9.23638Z" fill="#ffffff"/>
</svg>
