<svg width="131" height="32" viewBox="0 0 131 32" fill="none" xmlns="http://www.w3.org/2000/svg">
<path d="M22.4719 2.11594e-05H10.2134V16.5376H26.7644V4.27907C26.7644 3.716 26.6533 3.15847 26.4374 2.63843C26.2215 2.1184 25.9051 1.64608 25.5064 1.24856C25.1076 0.851035 24.6343 0.536124 24.1136 0.321874C23.5929 0.107625 23.035 -0.00174949 22.4719 2.11594e-05V2.11594e-05Z" fill="#ffffff"/>
<path d="M6.39166 0H4.27905C3.14418 0 2.05578 0.450827 1.2533 1.2533C0.450827 2.05578 0 3.14418 0 4.27905L0 6.39166H6.39166V0Z" fill="#ffffff"/>
<path d="M0 10.2135H6.39166V16.6052H0V10.2135Z" fill="#ffffff"/>
<path d="M20.4268 26.7647H22.5394C23.1024 26.7647 23.66 26.6536 24.18 26.4377C24.7 26.2218 25.1724 25.9054 25.5699 25.5067C25.9674 25.1079 26.2823 24.6346 26.4966 24.1139C26.7108 23.5932 26.8202 23.0353 26.8184 22.4722V20.4269H20.4268V26.7647Z" fill="#ffffff"/>
<path d="M10.2134 20.4269H16.605V26.8185H10.2134V20.4269Z" fill="#ffffff"/>
<path d="M0 20.4269V22.5395C0 23.6744 0.450827 24.7628 1.2533 25.5652C2.05578 26.3677 3.14418 26.8185 4.27905 26.8185H6.39166V20.4269H0Z" fill="#ffffff"/>
<path d="M43.1012 1.71033H40.5984V25.1105H53.8527V22.8768H43.1012V1.71033Z" fill="#ffffff"/>
<path d="M61.8991 7.91284C57.028 7.91284 53.5967 11.5325 53.5967 16.7401V17.3321C53.6765 19.535 54.6045 21.6217 56.1868 23.1564C57.7691 24.691 59.8833 25.5548 62.0875 25.5673H62.4104C64.6903 25.5633 66.8941 24.7476 68.6272 23.2663V23.199L67.4969 21.3555L67.3758 21.4228C66.0304 22.6779 64.2637 23.3836 62.4239 23.4008C61.5825 23.4196 60.7462 23.2666 59.9659 22.9511C59.1857 22.6357 58.478 22.1644 57.886 21.5662C57.2941 20.968 56.8304 20.2553 56.5232 19.4718C56.216 18.6883 56.0719 17.8503 56.0995 17.0092H68.7483V16.8746C68.7483 16.8746 68.7483 16.0807 68.7483 15.6905C68.8694 10.9405 66.1109 7.91284 61.8991 7.91284ZM56.2341 14.8966C56.3959 13.5456 57.0489 12.3013 58.0687 11.4006C59.0885 10.4999 60.4039 10.0056 61.7646 10.012C63.8772 10.012 66.1916 11.2769 66.38 14.8966H56.2341Z" fill="#ffffff"/>
<path d="M83.4282 9.89165V10.7663C82.9019 9.88939 82.1587 9.16266 81.2703 8.65599C80.3819 8.14932 79.378 7.87976 78.3553 7.87323H78.0458C73.5649 7.87323 70.47 11.4257 70.47 16.6332C70.47 21.8407 73.4303 25.4738 77.8439 25.4738C78.9677 25.5274 80.0847 25.2723 81.0739 24.7362C82.063 24.2002 82.8865 23.4036 83.4551 22.4328V25.0029H85.8234V1.71033H83.4282V9.89165ZM78.288 23.267C75.1931 23.267 73.1477 20.5758 73.1477 16.6735C73.1477 12.7713 75.3142 10.1473 78.3553 10.1473C80.8716 10.1473 83.4282 12.1927 83.4282 16.6735C83.4282 21.5312 80.737 23.267 78.2342 23.267H78.288Z" fill="#ffffff"/>
<path d="M100.315 10.2145V10.349C99.8437 9.55512 98.4039 7.84619 94.9322 7.84619C90.5186 7.84619 87.6121 11.2102 87.6121 16.3505C87.6121 21.4907 90.6531 24.9758 95.134 24.9758C96.166 25.0524 97.1989 24.8414 98.1182 24.3664C99.0375 23.8913 99.8071 23.1707 100.342 22.2846V24.5991C100.342 27.8285 98.2962 29.672 94.6631 29.672C93.0972 29.682 91.5517 29.3176 90.1553 28.609L90.0342 28.5417L89.1057 30.587L89.2403 30.6543C90.9349 31.5135 92.8036 31.9738 94.7034 31.9999C98.5923 31.9999 102.777 30.0219 102.777 24.5452V8.39789H100.315V10.2145ZM95.4301 22.8767C92.2006 22.8767 90.0476 20.3738 90.0476 16.485C90.0476 12.5962 91.8911 10.2818 95.0533 10.2818C98.5384 10.2818 100.194 12.3271 100.194 16.485C100.194 20.643 98.5923 22.8767 95.4301 22.8767Z" fill="#ffffff"/>
<path d="M112.707 7.91284C107.823 7.91284 104.458 11.5325 104.458 16.6728V17.2649C104.528 19.4912 105.462 21.6029 107.062 23.1526C108.662 24.7023 110.803 25.5684 113.03 25.5673H113.366C115.639 25.5543 117.833 24.734 119.556 23.2528V23.2528L118.413 21.2882H118.278C116.937 22.5424 115.175 23.2483 113.34 23.2663C112.498 23.285 111.661 23.132 110.88 22.8167C110.099 22.5014 109.39 22.0304 108.797 21.4323C108.204 20.8343 107.739 20.1218 107.431 19.3382C107.122 18.5546 106.976 17.7164 107.002 16.8746H119.758V16.7401C119.758 16.7401 119.758 15.9462 119.758 15.5559C119.758 10.9405 116.986 7.91284 112.707 7.91284ZM107.096 14.8966C107.261 13.5445 107.917 12.3 108.939 11.3995C109.961 10.499 111.278 10.0053 112.64 10.012C114.739 10.012 117.053 11.2769 117.242 14.8966H107.096Z" fill="#ffffff"/>
<path d="M130.039 8.23625C129.703 8.23625 129.447 8.23625 129.111 8.10168C127.948 8.13521 126.824 8.52667 125.892 9.22264C124.96 9.91861 124.266 10.8852 123.903 11.9905V8.23625H121.468V24.9084V25.043H123.971V17.9919C123.979 16.9081 124.156 15.8322 124.495 14.8028C125.289 12.2327 127.066 10.5911 129.178 10.5911C129.442 10.5644 129.708 10.5644 129.972 10.5911H130.107V8.23625H130.039Z" fill="#ffffff"/>
</svg>
