<svg width="81" height="22" viewBox="0 0 81 22" fill="none" xmlns="http://www.w3.org/2000/svg">
<g clip-path="url(#clip0_5676_122748)">
<path d="M11 11.3548L21.6452 0.709671V22" stroke="white" stroke-width="0.916667" stroke-miterlimit="16"/>
<path d="M0.355469 22V0.709671L11.0006 11.3548" stroke="white" stroke-width="0.916667"/>
<path d="M0.355469 22H21.6458L11.0006 11.3548L0.355469 22Z" fill="white"/>
<path d="M29.0391 6.41551H30.8913L33.8968 11.0887L36.9023 6.41551H38.751V16.2942H37.0158V9.20809L33.8968 13.8671H33.84L30.7494 9.23648V16.2942H29.0391V6.41551Z" fill="white"/>
<path d="M40.4297 11.3831V11.3547C40.4297 8.57277 42.5765 6.24503 45.6103 6.24503C48.6442 6.24503 50.7626 8.54438 50.7626 11.3263V11.3547C50.7626 14.1366 48.6158 16.4644 45.5819 16.4644C42.5481 16.4644 40.4297 14.165 40.4297 11.3831ZM48.9423 11.3831V11.3547C48.9423 9.43503 47.5442 7.83825 45.5819 7.83825C43.6197 7.83825 42.25 9.40664 42.25 11.3228V11.3547C42.25 13.2744 43.6481 14.8712 45.6103 14.8712C47.5726 14.8712 48.9423 13.3028 48.9423 11.3831Z" fill="white"/>
<path d="M52.0059 11.3831V11.3547C52.0059 8.57277 54.1526 6.24503 57.1865 6.24503C60.2204 6.24503 62.3388 8.54438 62.3388 11.3263V11.3547C62.3388 14.1366 60.192 16.4644 57.1581 16.4644C54.1242 16.4644 52.0059 14.165 52.0059 11.3831ZM60.5184 11.3831V11.3547C60.5184 9.43503 59.1204 7.83825 57.1581 7.83825C55.1959 7.83825 53.8262 9.40664 53.8262 11.3228V11.3547C53.8262 13.2744 55.2242 14.8712 57.1865 14.8712C59.1488 14.8712 60.5184 13.3028 60.5184 11.3831Z" fill="white"/>
<path d="M63.8887 6.41551H68.2922C69.5342 6.41551 70.5064 6.781 71.1416 7.40196C71.6632 7.93777 71.9613 8.67229 71.9613 9.53454V9.56293C71.9613 11.1845 70.989 12.1604 69.6051 12.5542L72.2735 16.2942H70.2261L67.799 12.8487H67.7706H65.6238V16.2942H63.8887V6.41551ZM68.1645 11.3123C69.4064 11.3123 70.1977 10.6629 70.1977 9.66229V9.6339C70.1977 8.57648 69.4348 7.99809 68.1503 7.99809H65.6238V11.3158H68.1645V11.3123Z" fill="white"/>
<path d="M73.6719 6.41551H80.9957V7.96616H75.407V10.5352H80.3606V12.0894H75.407V14.7436H81.0667V16.2942H73.6719V6.41551Z" fill="white"/>
</g>
<defs>
<clipPath id="clip0_5676_122748">
<rect width="80.9032" height="22" fill="white"/>
</clipPath>
</defs>
</svg>
