<svg width="139" height="32" viewBox="0 0 139 32" fill="none" xmlns="http://www.w3.org/2000/svg">
<path d="M103.538 19.1709C103.538 20.8703 103.6 20.9184 105.146 20.9184H110.303C110.521 20.9184 110.704 21.1004 110.704 21.3218V22.6196C110.704 22.9046 110.604 23.0076 110.303 23.0453C109.647 23.1483 108.321 23.3286 105.902 23.3286C102.515 23.3286 100.726 23.3509 100.726 19.1691V12.7472C100.726 8.56369 102.515 8.58601 105.902 8.58601C108.321 8.58601 109.645 8.76969 110.303 8.86926C110.604 8.91046 110.704 9.01174 110.704 9.2967V10.5928C110.704 10.8159 110.52 11.0013 110.303 11.0013H105.146C103.6 11.0013 103.538 11.046 103.538 12.7454V14.6046H110.053C110.28 14.6046 110.458 14.79 110.458 15.0097V16.474C110.458 16.6954 110.28 16.8791 110.053 16.8791H103.538V19.1709V19.1709ZM133.643 23.3389C131.844 23.3389 130.021 23.0316 129.043 22.8067C128.843 22.7655 128.657 22.6247 128.657 22.4016V20.9407C128.657 20.7175 128.843 20.5545 129.043 20.5545H129.084C129.899 20.6558 131.806 20.9201 133.688 20.9201C135.498 20.9201 136.051 20.2747 136.051 19.097C136.051 17.5744 132.407 16.7315 130.627 16.0019C128.859 15.2706 128.228 13.8733 128.228 12.4519C128.228 10.2185 130.033 8.59459 133.816 8.59459C135.756 8.59459 137.535 8.96196 138.225 9.13019C138.43 9.17139 138.588 9.31215 138.588 9.513V11.0151C138.588 11.2159 138.451 11.379 138.244 11.379H138.204C136.861 11.2588 135.467 11.0133 133.699 11.0133C132.189 11.0133 131.059 11.5386 131.059 12.4519C131.059 13.1197 131.825 13.7359 132.729 14.0913C133.633 14.4449 134.819 14.9067 136.174 15.4509C137.886 16.1427 139 17.1504 139 19.0953C138.998 21.1467 137.717 23.3389 133.643 23.3389ZM122.82 13.178C122.82 11.6554 121.637 11.0065 119.597 11.0065C119.172 11.0065 117.321 11.0477 116.952 11.0854V15.4869C117.281 15.5075 119.256 15.5487 119.597 15.5487C121.696 15.5487 122.82 15.1453 122.82 13.36V13.178ZM125.875 23.1689H123.387C123.165 23.1689 123.084 22.9646 122.982 22.7621L120.048 17.8422H119.594C119.067 17.8422 117.422 17.7838 116.949 17.7598V22.7621C116.949 22.9852 116.789 23.1689 116.565 23.1689H114.531C114.306 23.1689 114.123 22.9852 114.123 22.7621V9.4615C114.123 9.05294 114.364 8.91217 114.773 8.85037C115.831 8.68901 118.111 8.58773 119.592 8.58773C122.731 8.58773 125.623 9.70526 125.623 13.1763V13.36C125.623 15.5092 124.542 16.6869 122.875 17.3323L126.074 22.7638C126.116 22.8256 126.116 22.8822 126.116 22.9286C126.119 23.0659 126.037 23.1689 125.875 23.1689ZM98.2295 11.1043H94.1678V22.7638C94.1678 22.987 93.9801 23.1706 93.7546 23.1706H91.7418C91.5162 23.1706 91.3337 22.987 91.3337 22.7638V11.1043H87.2685C87.0481 11.1043 86.8639 10.967 86.8639 10.7421V9.13877C86.8639 8.91389 87.0481 8.75252 87.2685 8.75252H98.2295C98.4499 8.75252 98.6341 8.91389 98.6341 9.13877V10.7421C98.6341 10.967 98.4499 11.1043 98.2295 11.1043ZM78.7405 23.3303C75.4673 23.3303 72.6436 21.9106 72.6436 17.583V9.13877C72.6436 8.91389 72.8295 8.75252 73.0534 8.75252H75.0644C75.2917 8.75252 75.4725 8.91389 75.4725 9.13877V17.583C75.4725 19.8987 76.5452 20.9956 78.7405 20.9956C80.9427 20.9956 82.0119 19.8987 82.0119 17.583V9.13877C82.0119 8.91389 82.1961 8.75252 82.4182 8.75252H84.4327C84.66 8.75252 84.8425 8.91389 84.8425 9.13877V17.583C84.8442 21.9106 82.0205 23.3303 78.7405 23.3303ZM62.4351 19.1709C62.4351 20.8703 62.5005 20.9184 64.0398 20.9184H69.1931C69.4187 20.9184 69.6012 21.1004 69.6012 21.3218V22.6196C69.6012 22.9046 69.4979 23.0076 69.1931 23.0453C68.5423 23.1483 67.2148 23.3286 64.7939 23.3286C61.4157 23.3286 59.6234 23.3509 59.6234 19.1691V12.7472C59.6234 8.56369 61.4157 8.58601 64.7939 8.58601C67.2148 8.58601 68.5405 8.76969 69.1931 8.86926C69.4996 8.91046 69.6012 9.01174 69.6012 9.2967V10.5928C69.6012 10.8159 69.4169 11.0013 69.1931 11.0013H64.0398C62.5005 11.0013 62.4351 11.046 62.4351 12.7454V14.6046H68.9503C69.1742 14.6046 69.3584 14.79 69.3584 15.0097V16.474C69.3584 16.6954 69.1742 16.8791 68.9503 16.8791H62.4351V19.1709ZM53.709 13.178C53.709 11.6554 52.5244 11.0065 50.4892 11.0065C50.0588 11.0065 48.2061 11.0477 47.8428 11.0854V15.4869C48.1648 15.5075 50.138 15.5487 50.4892 15.5487C52.5829 15.5487 53.709 15.1453 53.709 13.36V13.178ZM56.7635 23.1689H54.2772C54.0551 23.1689 53.9724 22.9646 53.8726 22.7621L50.9386 17.8422H50.4909C49.9589 17.8422 48.3129 17.7838 47.8445 17.7598V22.7621C47.8445 22.9852 47.6792 23.1689 47.4554 23.1689H45.4202C45.1981 23.1689 45.0156 22.9852 45.0156 22.7621V9.4615C45.0156 9.05294 45.2567 8.91217 45.6665 8.85037C46.7271 8.68901 49.0033 8.58773 50.4909 8.58773C53.6246 8.58773 56.5207 9.70526 56.5207 13.1763V13.36C56.5207 15.5092 55.4411 16.6869 53.7727 17.3323L56.9666 22.7638C57.0079 22.8256 57.0079 22.8822 57.0079 22.9286C57.0062 23.0659 56.9253 23.1689 56.7635 23.1689Z" fill="#94A8B6"/>
<path d="M15.9116 10.5969C15.6241 10.7514 15.5225 11.1101 15.6723 11.3934C15.8256 11.6835 16.1889 11.7865 16.4764 11.6354C16.7622 11.4792 16.8672 11.1222 16.714 10.8338C16.609 10.6381 16.4058 10.523 16.194 10.523C16.0976 10.5248 16.0012 10.5488 15.9116 10.5969ZM17.5009 10.6226C17.2426 10.7582 17.1531 11.0758 17.2891 11.3316C17.4234 11.5856 17.7419 11.6818 17.9967 11.541C18.2567 11.402 18.348 11.0861 18.212 10.832C18.119 10.6569 17.9399 10.5574 17.754 10.5574C17.6679 10.5557 17.5818 10.578 17.5009 10.6226ZM14.4033 11.0449C14.0797 11.22 13.9557 11.6251 14.133 11.9479C14.3086 12.2723 14.7133 12.3976 15.0439 12.2208C15.3693 12.0457 15.4881 11.6406 15.3142 11.3178C15.1937 11.0913 14.9629 10.9642 14.7236 10.9642C14.6151 10.9642 14.5049 10.99 14.4033 11.0449ZM19.0264 11.117C18.8025 11.2406 18.7165 11.5238 18.837 11.7436C18.9575 11.9667 19.2416 12.0474 19.4586 11.9255C19.6876 11.8054 19.7702 11.5273 19.6462 11.3058C19.5636 11.1513 19.4035 11.0638 19.2399 11.0638C19.1658 11.0655 19.0935 11.081 19.0264 11.117ZM13.2067 12.0526C12.9157 12.2122 12.8072 12.5624 12.9657 12.856C13.1206 13.1392 13.4753 13.2474 13.7628 13.0929C14.0556 12.9384 14.1623 12.5779 14.0073 12.2946C13.9006 12.0972 13.6957 11.9822 13.4839 11.9822C13.3892 11.9805 13.2945 12.0045 13.2067 12.0526ZM20.3384 12.0594C20.1421 12.1659 20.0715 12.4028 20.1731 12.5933C20.2764 12.7839 20.514 12.8525 20.712 12.7564C20.9014 12.6482 20.9772 12.4096 20.8721 12.2174C20.7998 12.0869 20.6638 12.0097 20.5243 12.0097C20.4624 12.0114 20.3969 12.0268 20.3384 12.0594ZM21.3078 13.3486C21.1545 13.4379 21.0908 13.6405 21.1804 13.7967C21.2647 13.9563 21.4645 14.013 21.6211 13.9289C21.7813 13.843 21.8415 13.6473 21.7554 13.4877C21.6934 13.3744 21.5798 13.3126 21.4627 13.3126C21.4093 13.3126 21.3577 13.3229 21.3078 13.3486ZM12.3544 13.3898C12.0979 13.5272 12.0049 13.8465 12.1375 14.1005C12.2787 14.3529 12.5972 14.4507 12.8503 14.3134C13.1068 14.1778 13.205 13.8585 13.0655 13.601C12.9691 13.4276 12.7866 13.328 12.6006 13.328C12.518 13.328 12.4336 13.3486 12.3544 13.3898ZM21.8002 14.758C21.6056 14.8593 21.5333 15.1013 21.6401 15.2919C21.7399 15.4824 21.9827 15.5528 22.1687 15.455C22.3632 15.3434 22.4373 15.1031 22.3357 14.9159C22.2634 14.7838 22.1273 14.7099 21.9879 14.7099C21.9224 14.7099 21.8605 14.7271 21.8002 14.758ZM11.936 14.9383C11.7156 15.0567 11.6347 15.3348 11.7518 15.5562C11.8758 15.7828 12.153 15.8635 12.3768 15.7434C12.5989 15.6215 12.6833 15.34 12.5627 15.1219C12.4801 14.9692 12.3217 14.8816 12.1581 14.8816C12.0841 14.8799 12.0066 14.8971 11.936 14.9383ZM21.8036 16.2532C21.5781 16.3768 21.4989 16.6515 21.6142 16.8781C21.733 17.0961 22.0206 17.1785 22.2427 17.06C22.4648 16.9381 22.5457 16.6601 22.4252 16.4386C22.3426 16.2841 22.1859 16.1983 22.0223 16.1983C21.9483 16.1983 21.8742 16.2154 21.8036 16.2532ZM12.0032 16.5433C11.8138 16.648 11.7415 16.8884 11.8465 17.0789C11.9498 17.2729 12.1908 17.3398 12.3785 17.2334C12.5714 17.1356 12.6488 16.8918 12.5404 16.703C12.4663 16.5725 12.332 16.497 12.1908 16.497C12.1271 16.497 12.0617 16.5124 12.0032 16.5433ZM21.3267 17.6815C21.0702 17.8154 20.9755 18.1415 21.1115 18.3956C21.2527 18.6479 21.5695 18.7441 21.8209 18.6067C22.0826 18.466 22.1738 18.1518 22.0395 17.8943C21.9448 17.7192 21.764 17.6179 21.5764 17.6179C21.492 17.6179 21.4059 17.6385 21.3267 17.6815ZM12.5541 18.066C12.3923 18.1501 12.3355 18.3492 12.4216 18.514C12.5076 18.6702 12.7039 18.7303 12.8675 18.6462C13.0259 18.5569 13.0862 18.3578 12.9984 18.1982C12.9381 18.09 12.8227 18.0265 12.7057 18.0265C12.654 18.0282 12.6024 18.0402 12.5541 18.066ZM20.4107 18.902C20.1214 19.0565 20.0164 19.417 20.1714 19.7002C20.3246 19.9869 20.6828 20.0933 20.9737 19.9371C21.2613 19.7878 21.3663 19.4256 21.2113 19.1406C21.1029 18.9432 20.8997 18.8299 20.6896 18.8299C20.5949 18.8299 20.5002 18.8539 20.4107 18.902ZM13.4667 19.2436C13.2756 19.3432 13.2033 19.5852 13.3066 19.774C13.4082 19.9663 13.6475 20.0367 13.8386 19.9303C14.028 19.8324 14.1003 19.5938 13.9987 19.4015C13.9281 19.2711 13.7921 19.199 13.6526 19.199C13.5907 19.1973 13.527 19.2127 13.4667 19.2436ZM19.1314 19.7775C18.8077 19.9509 18.682 20.356 18.8628 20.6822C19.0384 21.0049 19.4465 21.125 19.7736 20.9534C20.0973 20.7749 20.2196 20.368 20.044 20.0504C19.9217 19.8255 19.691 19.6951 19.4517 19.6951C19.3432 19.6934 19.233 19.7191 19.1314 19.7775ZM14.7184 20.0676C14.4894 20.1912 14.4085 20.4659 14.5325 20.689C14.6478 20.9122 14.9302 20.998 15.1541 20.8779C15.3779 20.7525 15.4623 20.471 15.34 20.2513C15.2556 20.1002 15.0955 20.0127 14.9337 20.0127C14.8614 20.0109 14.7873 20.0281 14.7184 20.0676ZM17.7006 20.3611C17.4113 20.5139 17.3115 20.871 17.4681 21.1611C17.6179 21.4461 17.9761 21.5576 18.2653 21.398C18.5546 21.2469 18.6579 20.8864 18.5047 20.6015C18.3962 20.4041 18.193 20.2925 17.983 20.2925C17.8866 20.2908 17.7901 20.3131 17.7006 20.3611ZM16.1751 20.4521C15.9203 20.5895 15.829 20.9105 15.9633 21.1628C16.1045 21.4186 16.4213 21.5147 16.6778 21.3774C16.9361 21.2435 17.0308 20.9225 16.8913 20.665C16.7984 20.4899 16.6159 20.392 16.4265 20.392C16.3421 20.392 16.2543 20.4109 16.1751 20.4521Z" fill="#94A8B6"/>
<path d="M16.1866 8.98776C16.0695 9.38431 16.2951 9.79802 16.6945 9.91819C17.0922 10.0349 17.5072 9.80489 17.6277 9.41177C17.7465 9.01523 17.5192 8.59637 17.1215 8.47963C17.0492 8.45903 16.9769 8.44873 16.9063 8.44873C16.5809 8.45045 16.2847 8.66332 16.1866 8.98776ZM18.1994 9.22981C18.0651 9.68815 18.3199 10.1619 18.7831 10.2976C19.2393 10.4332 19.718 10.174 19.8523 9.71905C19.99 9.25899 19.7283 8.77833 19.2686 8.64443C19.1877 8.6204 19.1067 8.6101 19.0258 8.6101C18.6522 8.61182 18.3096 8.85558 18.1994 9.22981ZM14.1669 9.40491C14.0636 9.75854 14.2685 10.1276 14.6232 10.2323C14.9744 10.3353 15.3481 10.1362 15.4514 9.78085C15.5512 9.43066 15.3481 9.05986 14.9985 8.95515C14.9365 8.93626 14.8746 8.9294 14.8126 8.9294C14.5216 8.92768 14.2547 9.11651 14.1669 9.40491ZM20.2362 10.1774C20.1192 10.5722 20.3482 10.9894 20.7459 11.1061C21.1436 11.2228 21.562 10.9928 21.6791 10.5963C21.7979 10.2014 21.5706 9.78429 21.1712 9.66584C21.1006 9.64524 21.0283 9.63494 20.9594 9.63494C20.634 9.63494 20.3344 9.84952 20.2362 10.1774ZM12.4313 10.4675C12.3487 10.7473 12.5071 11.0357 12.7877 11.1198C13.0667 11.2005 13.3594 11.0392 13.4403 10.7628C13.5212 10.4864 13.3611 10.1946 13.0839 10.1122C13.034 10.0984 12.984 10.0916 12.9358 10.0916C12.7068 10.0898 12.4985 10.2392 12.4313 10.4675ZM21.8668 11.6589C21.7618 12.0159 21.9666 12.3833 22.3179 12.4863C22.6726 12.5893 23.0411 12.385 23.1478 12.0314C23.2528 11.6812 23.0514 11.3121 22.695 11.2091C22.633 11.1902 22.5693 11.1816 22.5073 11.1816C22.2215 11.1834 21.9563 11.3705 21.8668 11.6589ZM11.0573 12.0417C10.9902 12.2648 11.121 12.5017 11.3466 12.5653C11.5722 12.6305 11.8063 12.5035 11.8752 12.2803C11.9458 12.0571 11.8115 11.8219 11.5876 11.7533C11.548 11.743 11.5102 11.7378 11.4723 11.7378C11.2846 11.7361 11.1124 11.8528 11.0573 12.0417ZM23.0273 13.5678C22.9429 13.851 23.1082 14.1411 23.3837 14.2201C23.6643 14.3025 23.9553 14.1429 24.0363 13.8648C24.1189 13.5867 23.9605 13.2948 23.6816 13.2159C23.6316 13.2004 23.58 13.1935 23.53 13.1935C23.3028 13.1935 23.0927 13.3429 23.0273 13.5678ZM10.2498 13.9952C10.1999 14.1652 10.2929 14.3437 10.4616 14.3935C10.6321 14.4433 10.8077 14.3437 10.8576 14.1755C10.9075 14.009 10.8111 13.8321 10.6407 13.7824C10.6097 13.7738 10.5804 13.7703 10.5511 13.7703C10.4151 13.7686 10.2894 13.8579 10.2498 13.9952ZM23.5197 15.6913C23.4508 15.9127 23.58 16.153 23.809 16.2166C24.0345 16.2835 24.2687 16.1548 24.3376 15.9282C24.403 15.7067 24.2773 15.4698 24.0483 15.4029C24.0087 15.3926 23.9691 15.3857 23.9295 15.3857C23.7435 15.384 23.5714 15.5059 23.5197 15.6913ZM9.86757 16.0758C9.80042 16.3007 9.933 16.5341 10.1586 16.6011C10.3841 16.668 10.6183 16.541 10.6872 16.3144C10.7543 16.0912 10.6252 15.8543 10.3996 15.7874C10.36 15.7771 10.3204 15.7702 10.2808 15.7702C10.0966 15.7702 9.92612 15.8921 9.86757 16.0758ZM23.3458 17.8319C23.2993 17.9984 23.394 18.177 23.5593 18.225C23.7315 18.2748 23.9054 18.1804 23.9536 18.0087C24.0053 17.8439 23.9106 17.6654 23.7384 17.6156C23.7091 17.607 23.6816 17.6036 23.6523 17.6036C23.5163 17.6036 23.3871 17.6946 23.3458 17.8319ZM10.1723 18.1426C10.0931 18.419 10.2447 18.7126 10.527 18.7932C10.8042 18.8774 11.0969 18.7143 11.1779 18.4362C11.2605 18.1581 11.1004 17.8663 10.8232 17.7907C10.7715 17.7753 10.7199 17.7684 10.6682 17.7684C10.4427 17.7667 10.236 17.916 10.1723 18.1426ZM22.3299 19.7254C22.2662 19.952 22.3937 20.1889 22.6158 20.2524C22.8448 20.3193 23.0824 20.1906 23.1478 19.9657C23.2115 19.7443 23.0841 19.5039 22.8585 19.437C22.8189 19.4267 22.7793 19.4198 22.7397 19.4198C22.5572 19.4198 22.3868 19.54 22.3299 19.7254ZM11.0556 19.9709C10.9506 20.3228 11.152 20.6919 11.5067 20.7983C11.8649 20.903 12.2316 20.7004 12.3384 20.3485C12.4417 19.9966 12.235 19.6224 11.8821 19.5177C11.8184 19.4988 11.7564 19.4902 11.6944 19.4902C11.4069 19.4902 11.1434 19.679 11.0556 19.9709ZM20.7648 21.2429C20.6856 21.5193 20.8475 21.8111 21.1247 21.8935C21.4019 21.9759 21.6946 21.8163 21.7738 21.5416C21.8582 21.2618 21.6998 20.97 21.4208 20.8893C21.3709 20.8738 21.3193 20.867 21.2693 20.867C21.042 20.867 20.8337 21.018 20.7648 21.2429ZM12.5295 21.4128C12.4141 21.806 12.6362 22.2214 13.0374 22.3398C13.4386 22.4549 13.8535 22.2265 13.9723 21.8334C14.0877 21.4403 13.8604 21.0197 13.461 20.903C13.3887 20.8824 13.3181 20.8721 13.2492 20.8721C12.922 20.8721 12.6259 21.085 12.5295 21.4128ZM14.3511 22.2883C14.2186 22.7484 14.4751 23.2239 14.9365 23.3595C15.3928 23.49 15.8767 23.2273 16.0058 22.7759C16.1401 22.3175 15.8818 21.8386 15.4204 21.7047C15.3394 21.6824 15.2585 21.6703 15.1776 21.6703C14.804 21.6703 14.4596 21.9141 14.3511 22.2883ZM18.7538 22.2248C18.6505 22.5785 18.8554 22.9492 19.2066 23.0522C19.563 23.1552 19.9332 22.9561 20.0365 22.6008C20.1398 22.2506 19.9401 21.8798 19.5837 21.7768C19.52 21.7562 19.4563 21.7476 19.3943 21.7476C19.105 21.7476 18.8381 21.9364 18.7538 22.2248ZM16.5757 22.5973C16.4603 22.9904 16.6893 23.4042 17.0853 23.5226C17.4848 23.6428 17.9032 23.4145 18.0168 23.0196C18.1305 22.6214 17.9084 22.2042 17.5089 22.0892C17.4366 22.0686 17.366 22.0583 17.2954 22.0583C16.9717 22.0583 16.6721 22.2695 16.5757 22.5973Z" fill="#94A8B6"/>
<path d="M17.6214 6.41898C17.2977 6.76231 17.3132 7.30306 17.6593 7.62579C18.0036 7.95023 18.546 7.93478 18.868 7.59145C19.1934 7.24641 19.1744 6.7091 18.8318 6.38293C18.6665 6.22844 18.4565 6.1529 18.2464 6.1529C18.0191 6.1529 17.7901 6.24217 17.6214 6.41898ZM14.9096 6.62841C14.6547 6.89964 14.6668 7.32366 14.9388 7.58115C15.2092 7.8335 15.6362 7.81977 15.8927 7.55025C16.1458 7.28074 16.1338 6.85329 15.8634 6.59923C15.7326 6.47735 15.5673 6.41727 15.402 6.41727C15.2212 6.41898 15.0421 6.48937 14.9096 6.62841ZM20.2781 7.13998C19.9131 7.5245 19.9286 8.13048 20.316 8.49613C20.7017 8.86005 21.3164 8.84117 21.6779 8.45836C22.0412 8.07211 22.0257 7.4627 21.6383 7.10049C21.4507 6.92539 21.2131 6.83785 20.9755 6.83785C20.7223 6.83613 20.4675 6.93913 20.2781 7.13998ZM12.3217 7.67214C12.1151 7.89015 12.1254 8.23176 12.3441 8.44119C12.5645 8.64547 12.9105 8.63689 13.1172 8.41716C13.3238 8.19914 13.3134 7.8541 13.0948 7.64982C12.988 7.55197 12.8537 7.50219 12.7194 7.50219C12.5731 7.50219 12.4302 7.55884 12.3217 7.67214ZM22.5268 8.64204C22.105 9.08493 22.1222 9.78018 22.5698 10.2008C23.0141 10.6231 23.7166 10.599 24.1349 10.1596C24.5551 9.71151 24.5344 9.01284 24.0902 8.59397C23.875 8.39313 23.6029 8.29356 23.3326 8.29356C23.0382 8.29356 22.7437 8.41029 22.5268 8.64204ZM10.1729 9.50551C10.0179 9.67031 10.0248 9.92437 10.1884 10.0789C10.3554 10.2351 10.612 10.2265 10.7635 10.0634C10.9184 9.89862 10.9098 9.64284 10.748 9.48835C10.667 9.41625 10.5655 9.3802 10.4656 9.3802C10.3588 9.37848 10.2521 9.4214 10.1729 9.50551ZM24.3726 10.9853C24.0075 11.3698 24.023 11.9792 24.4139 12.3431C24.803 12.7071 25.4125 12.6847 25.7741 12.3019C26.1408 11.914 26.1236 11.3097 25.7328 10.9423C25.5485 10.769 25.3127 10.6831 25.0768 10.6831C24.8185 10.6831 24.562 10.7844 24.3726 10.9853ZM8.46659 11.7526C8.25825 11.9706 8.2703 12.3139 8.49069 12.5217C8.70936 12.7259 9.05373 12.7174 9.26207 12.5011C9.46524 12.283 9.45663 11.9397 9.23796 11.7337C9.13293 11.6342 8.99862 11.5844 8.86432 11.5844C8.71969 11.5827 8.57506 11.641 8.46659 11.7526ZM25.4074 13.7302C25.0819 14.0735 25.0992 14.6143 25.4452 14.937C25.7896 15.2631 26.3337 15.2443 26.6557 14.9009C26.9811 14.5593 26.9639 14.0186 26.6195 13.6958C26.4542 13.5396 26.2424 13.4624 26.0306 13.4624C25.8034 13.4607 25.5761 13.5516 25.4074 13.7302ZM7.57642 14.3928C7.32504 14.664 7.33192 15.0863 7.60569 15.3404C7.87601 15.5962 8.30302 15.5807 8.55957 15.3129C8.8144 15.0434 8.79889 14.6143 8.53201 14.3619C8.39944 14.2383 8.23243 14.1782 8.06714 14.1782C7.88807 14.1799 7.709 14.2503 7.57642 14.3928ZM25.6243 16.6914C25.3695 16.9609 25.385 17.3866 25.6553 17.6407C25.9291 17.8982 26.3526 17.8827 26.6092 17.6115C26.864 17.342 26.8554 16.918 26.5799 16.6622C26.4508 16.5403 26.2855 16.4802 26.1185 16.4802C25.9377 16.482 25.7569 16.5523 25.6243 16.6914ZM7.52821 17.1034C7.20624 17.445 7.22173 17.9875 7.56609 18.3102C7.91045 18.6364 8.45282 18.6192 8.77652 18.2759C9.10022 17.9342 9.08472 17.3935 8.74036 17.0656C8.57506 16.9111 8.365 16.8339 8.15494 16.8339C7.92594 16.8339 7.69867 16.9249 7.52821 17.1034ZM24.9235 19.505C24.7152 19.723 24.7255 20.068 24.9459 20.2775C25.168 20.4835 25.5124 20.4732 25.7207 20.25C25.9256 20.032 25.917 19.6869 25.6983 19.4809C25.5916 19.3831 25.4573 19.335 25.323 19.3333C25.1766 19.3333 25.032 19.39 24.9235 19.505ZM8.4115 19.7041C8.04648 20.0869 8.05852 20.6946 8.44765 21.062C8.8385 21.4242 9.44802 21.4036 9.8096 21.0208C10.1746 20.6362 10.1557 20.0251 9.76999 19.6646C9.58403 19.4895 9.34815 19.402 9.11398 19.402C8.85916 19.4003 8.6009 19.505 8.4115 19.7041ZM10.0489 21.8482C9.63052 22.298 9.65119 22.9881 10.0971 23.4103C10.5414 23.8292 11.2439 23.8103 11.6605 23.364C12.0806 22.9194 12.06 22.2241 11.614 21.8018C11.3988 21.601 11.1268 21.5014 10.8547 21.5014C10.5603 21.4997 10.2659 21.6165 10.0489 21.8482ZM23.4187 21.946C23.2654 22.1091 23.274 22.3666 23.4359 22.5194C23.6012 22.6705 23.8577 22.6636 24.011 22.4988C24.1659 22.3392 24.1591 22.0799 23.9938 21.9289C23.9163 21.8551 23.8164 21.8173 23.7148 21.8173H23.7131C23.6046 21.8173 23.4979 21.8602 23.4187 21.946ZM12.5042 23.5511C12.1409 23.9305 12.1581 24.5399 12.5472 24.9073C12.9347 25.2712 13.5459 25.2523 13.9075 24.8661C14.2708 24.4798 14.257 23.8721 13.8679 23.5082C13.6819 23.3331 13.4443 23.2473 13.2084 23.2473C12.9502 23.2473 12.6953 23.3485 12.5042 23.5511ZM21.0684 23.5872C20.8601 23.8052 20.8704 24.1519 21.0891 24.3562C21.3112 24.5639 21.6556 24.5519 21.8622 24.3322C22.0688 24.1159 22.0602 23.7726 21.8398 23.5648C21.7348 23.4653 21.5987 23.4155 21.4644 23.4155C21.3198 23.4172 21.1752 23.4739 21.0684 23.5872ZM15.3142 24.4129C14.9905 24.7545 15.006 25.2987 15.3521 25.618C15.6999 25.9441 16.2388 25.9287 16.5608 25.5853C16.8862 25.2437 16.8724 24.7013 16.528 24.3785C16.3628 24.2223 16.1527 24.1451 15.9409 24.1451C15.7102 24.1468 15.4829 24.2361 15.3142 24.4129ZM18.2929 24.4558C18.0398 24.7236 18.0518 25.1493 18.3222 25.4051C18.5942 25.6609 19.0212 25.6437 19.276 25.3759C19.5309 25.1081 19.5205 24.6807 19.2485 24.4266C19.1176 24.3047 18.9506 24.2446 18.787 24.2446C18.6063 24.2446 18.4255 24.315 18.2929 24.4558Z" fill="#94A8B6"/>
<path d="M18.9922 3.48534C18.5893 3.56602 18.3293 3.95055 18.4102 4.35396C18.4911 4.75223 18.8802 5.01144 19.2814 4.93247C19.6826 4.85179 19.9426 4.46383 19.8617 4.06385C19.7911 3.71194 19.4829 3.46989 19.1368 3.46989C19.092 3.47161 19.0421 3.47676 18.9922 3.48534ZM15.9222 3.68791C15.6071 3.73597 15.3884 4.02608 15.4332 4.34195C15.4814 4.65781 15.7759 4.87411 16.0909 4.82776C16.406 4.78141 16.6264 4.48958 16.5799 4.17372C16.5386 3.88704 16.2907 3.68104 16.0066 3.68104C15.979 3.68104 15.9515 3.68276 15.9222 3.68791ZM21.9502 4.1102C21.4716 4.23208 21.1788 4.71789 21.3028 5.19855C21.4268 5.67578 21.9158 5.96761 22.3944 5.84401C22.8731 5.72213 23.1641 5.23289 23.0418 4.75738C22.9368 4.35053 22.5735 4.08445 22.1723 4.08445C22.1017 4.08273 22.026 4.09132 21.9502 4.1102ZM12.7816 4.61661C12.5079 4.73334 12.3805 5.04749 12.4993 5.32215C12.6163 5.59338 12.9349 5.7187 13.2069 5.60196C13.479 5.48523 13.6081 5.16765 13.4893 4.89814C13.4015 4.69386 13.2035 4.5737 12.9951 4.5737C12.9263 4.57198 12.8522 4.58743 12.7816 4.61661ZM24.5725 5.43373C23.9837 5.61742 23.6514 6.24056 23.8373 6.83108C24.0198 7.41818 24.65 7.74606 25.2389 7.56238C25.8294 7.37869 26.1566 6.75212 25.9723 6.16502C25.8225 5.6878 25.3835 5.38223 24.9083 5.38223C24.7981 5.38223 24.6844 5.3994 24.5725 5.43373ZM9.94756 6.25601C9.6979 6.45342 9.65485 6.81563 9.85286 7.06626C10.0526 7.3169 10.4176 7.35809 10.6656 7.16068C10.9169 6.96155 10.9617 6.60105 10.762 6.35042C10.6466 6.20622 10.4796 6.13241 10.3091 6.13241C10.1817 6.13241 10.0543 6.17361 9.94756 6.25601ZM26.7265 7.51603C26.086 7.75292 25.7588 8.45675 25.9964 9.09706C26.234 9.73565 26.9434 10.0601 27.5805 9.82491C28.2193 9.58973 28.5464 8.88076 28.3105 8.24388C28.1246 7.74606 27.6545 7.44049 27.1552 7.44049C27.0123 7.43878 26.8677 7.46453 26.7265 7.51603ZM7.69545 8.34345C7.36142 8.58035 7.28049 9.03697 7.5181 9.37344C7.75571 9.70475 8.21715 9.78372 8.54946 9.54853C8.88349 9.31164 8.96269 8.84986 8.72681 8.52026C8.58218 8.31598 8.35318 8.20783 8.12245 8.20783C7.9761 8.20783 7.82631 8.25075 7.69545 8.34345ZM28.2262 10.1236C27.5443 10.4172 27.2292 11.1999 27.5237 11.8815C27.8164 12.5595 28.6067 12.8737 29.2868 12.5818C29.9669 12.2883 30.282 11.5004 29.9876 10.8223C29.7689 10.3159 29.2748 10.0137 28.7565 10.0137C28.5791 10.0137 28.3984 10.0498 28.2262 10.1236ZM6.11828 10.915C5.7016 11.1793 5.57419 11.7304 5.84107 12.1493C6.10451 12.5664 6.66065 12.6917 7.07732 12.4291C7.49744 12.1647 7.62141 11.6102 7.35625 11.1914C7.18579 10.9219 6.89654 10.7759 6.59867 10.7759C6.4351 10.7759 6.26808 10.8223 6.11828 10.915ZM29.0647 13.2531C28.4552 13.5535 28.2038 14.2916 28.5068 14.8993C28.8116 15.5122 29.5502 15.7576 30.1597 15.4555C30.7693 15.1551 31.0206 14.4204 30.7176 13.8093C30.5024 13.3767 30.0633 13.126 29.6088 13.126C29.4263 13.126 29.2403 13.1672 29.0647 13.2531ZM5.28493 13.7286C4.74601 14.029 4.55488 14.7071 4.85792 15.2461C5.15924 15.7817 5.84107 15.9739 6.38 15.6718C6.91892 15.3714 7.11003 14.6899 6.807 14.1526C6.6021 13.7887 6.22331 13.5844 5.83246 13.5844C5.64823 13.5844 5.45884 13.629 5.28493 13.7286ZM29.106 16.5044C28.5688 16.8048 28.376 17.4863 28.679 18.0236C28.982 18.5626 29.6639 18.7498 30.2011 18.4476C30.74 18.1455 30.9328 17.4691 30.6281 16.9301C30.4232 16.5662 30.0444 16.3602 29.6535 16.3602C29.4693 16.3602 29.2799 16.4083 29.106 16.5044ZM5.32798 16.719C4.72018 17.0177 4.46536 17.7541 4.77012 18.3652C5.07315 18.9746 5.81525 19.2218 6.42476 18.9214C7.03428 18.621 7.28566 17.8829 6.98262 17.2752C6.76568 16.8391 6.3335 16.5902 5.88067 16.5902C5.69299 16.5902 5.5036 16.6314 5.32798 16.719ZM6.20265 19.5943C5.52253 19.8862 5.20573 20.6707 5.50016 21.3539C5.79286 22.0337 6.58661 22.3444 7.265 22.0526C7.94511 21.759 8.25848 20.9711 7.96405 20.293C7.74538 19.7866 7.25122 19.4862 6.73296 19.4862C6.55562 19.4845 6.37482 19.5188 6.20265 19.5943ZM28.4104 19.7471C27.992 20.0132 27.8663 20.5643 28.1315 20.9814C28.3966 21.4003 28.9511 21.5221 29.3695 21.2595C29.7861 20.9951 29.9135 20.4458 29.6467 20.0252C29.4762 19.7557 29.1835 19.6098 28.8873 19.6098C28.7238 19.6081 28.5585 19.6527 28.4104 19.7471ZM7.90551 22.3513C7.26844 22.5882 6.93958 23.2954 7.17719 23.9306C7.4148 24.5726 8.1259 24.8936 8.76125 24.6567C9.40175 24.4198 9.72889 23.7177 9.49129 23.0757C9.30705 22.5813 8.83528 22.274 8.33423 22.274C8.19132 22.274 8.04669 22.2998 7.90551 22.3513ZM26.9365 22.6277C26.6025 22.8646 26.5233 23.3246 26.7592 23.6576C26.9985 23.9924 27.4582 24.0696 27.794 23.8345C28.1263 23.5993 28.2055 23.1392 27.9679 22.8028C27.8233 22.6002 27.5943 22.492 27.3618 22.492C27.2155 22.492 27.0657 22.535 26.9365 22.6277ZM10.2489 24.6138C9.66002 24.7958 9.33115 25.4206 9.51711 26.0095C9.70134 26.6017 10.3264 26.9261 10.9152 26.7407C11.5058 26.5588 11.8364 25.9356 11.6521 25.3468C11.5023 24.8696 11.0598 24.5623 10.5829 24.5623C10.471 24.5623 10.3591 24.5795 10.2489 24.6138ZM24.8222 25.0138C24.5725 25.2129 24.5295 25.5751 24.7275 25.8241C24.9255 26.0764 25.2905 26.1142 25.5402 25.9185C25.7916 25.7193 25.8346 25.3588 25.6349 25.1065C25.5212 24.9623 25.3525 24.8885 25.182 24.8885C25.0563 24.8902 24.9289 24.9297 24.8222 25.0138ZM13.0933 26.3339C12.6146 26.4558 12.3254 26.9416 12.4476 27.4205C12.5699 27.9029 13.0571 28.1879 13.5375 28.066C14.0179 27.9424 14.3089 27.46 14.1866 26.9794C14.0833 26.5742 13.7183 26.3064 13.3171 26.3064C13.2431 26.3064 13.169 26.3133 13.0933 26.3339ZM22.2791 26.5742C22.007 26.6892 21.8796 27.0068 21.9984 27.2781C22.1172 27.5527 22.434 27.6763 22.7061 27.5596C22.9799 27.4429 23.1073 27.1253 22.9885 26.8523C22.9007 26.6498 22.7009 26.5279 22.4926 26.5279C22.422 26.5296 22.3514 26.5433 22.2791 26.5742ZM16.2046 27.242C15.8034 27.3227 15.5434 27.7124 15.6243 28.1106C15.7053 28.5123 16.0961 28.7715 16.4973 28.6909C16.8967 28.6085 17.1585 28.2222 17.0775 27.8188C17.0069 27.4686 16.697 27.2266 16.3509 27.2266C16.3027 27.2266 16.2545 27.2317 16.2046 27.242ZM19.3968 27.3467C19.0817 27.3931 18.863 27.6866 18.9095 28.0025C18.956 28.3183 19.2504 28.5346 19.5655 28.4883C19.8823 28.4419 20.1027 28.1501 20.0545 27.8342C20.0132 27.5459 19.7635 27.3399 19.4794 27.3399C19.4536 27.3399 19.4243 27.3416 19.3968 27.3467Z" fill="#94A8B6"/>
<path d="M16.3881 0.686656C16.3881 1.06775 16.698 1.37503 17.0768 1.37503C17.459 1.37503 17.769 1.06775 17.769 0.686656C17.769 0.303844 17.459 -2.06177e-06 17.0768 -2.06177e-06C16.698 -2.06177e-06 16.3881 0.303844 16.3881 0.686656ZM20.3379 1.01625C20.2311 1.4128 20.467 1.81621 20.8613 1.92093C21.2573 2.02736 21.6654 1.79389 21.7704 1.39906C21.8772 1.00423 21.6396 0.600825 21.2435 0.494393C21.1798 0.477226 21.1144 0.468642 21.0507 0.468642C20.7253 0.470358 20.4274 0.686656 20.3379 1.01625ZM12.9118 0.496109C12.5175 0.600824 12.2799 1.00423 12.3866 1.39906C12.4916 1.79389 12.9014 2.02736 13.294 1.92093C13.69 1.81621 13.9259 1.41108 13.8209 1.01454C13.7313 0.68494 13.4335 0.468642 13.1063 0.468642C13.0426 0.470358 12.9772 0.477225 12.9118 0.496109ZM23.8314 2.5372C23.7229 3.04876 24.0501 3.55174 24.5614 3.65989C25.0745 3.76803 25.5773 3.44187 25.6875 2.93375C25.7977 2.41875 25.4688 1.91921 24.9575 1.81278C24.8903 1.79904 24.8232 1.79218 24.756 1.79218C24.3187 1.79046 23.9261 2.09259 23.8314 2.5372ZM9.19956 1.81106C8.68819 1.91921 8.35933 2.41875 8.4678 2.93375C8.57627 3.44359 9.08076 3.76975 9.59214 3.65989C10.1052 3.55174 10.4324 3.04876 10.3239 2.5372C10.2292 2.09259 9.83663 1.79046 9.3993 1.79046C9.33387 1.79046 9.26671 1.79561 9.19956 1.81106ZM26.8049 4.99201C26.7051 5.61686 27.1338 6.20567 27.7605 6.30524C28.3838 6.4048 28.9761 5.97564 29.0743 5.35078C29.1741 4.72249 28.7437 4.14055 28.1204 4.03927C28.0584 4.03068 27.9982 4.02553 27.9379 4.02553C27.3817 4.02553 26.8945 4.42551 26.8049 4.99201ZM6.03835 4.03927C5.41333 4.13883 4.98461 4.72078 5.08447 5.34907C5.18262 5.97393 5.77146 6.40137 6.39819 6.30352C7.02665 6.20396 7.45539 5.61515 7.35552 4.99029C7.26599 4.42379 6.777 4.02382 6.22258 4.02382C6.16059 4.02553 6.10033 4.02897 6.03835 4.03927ZM28.9537 8.19355C28.8711 8.97806 29.4445 9.68188 30.2296 9.76428C31.0182 9.84668 31.7224 9.27675 31.8033 8.49225C31.886 7.70431 31.3161 7.00391 30.5292 6.92151C30.4775 6.91636 30.4276 6.91465 30.3777 6.91465C29.6562 6.91465 29.0312 7.45711 28.9537 8.19355ZM3.62783 6.92151C2.83925 7.00391 2.26933 7.70431 2.35369 8.49225C2.43634 9.27675 3.13884 9.84668 3.92742 9.76428C4.71428 9.68188 5.28592 8.97806 5.20328 8.19355C5.1258 7.45711 4.50423 6.91465 3.78107 6.91465C3.72942 6.91465 3.67776 6.91465 3.62783 6.92151ZM30.3415 11.9513C30.2968 12.8199 30.9648 13.5615 31.8343 13.6079C32.7073 13.6525 33.4528 12.9864 33.4976 12.1161C33.5441 11.244 32.8708 10.5076 32.003 10.4612C31.9738 10.4595 31.9445 10.4595 31.917 10.4595C31.0819 10.4595 30.3863 11.1067 30.3415 11.9513ZM2.15397 10.463C1.28791 10.5076 0.614685 11.244 0.659451 12.1178C0.70594 12.9864 1.45147 13.6542 2.3227 13.6096C3.19393 13.5632 3.86199 12.8216 3.81722 11.953C3.77246 11.1084 3.07685 10.4612 2.24006 10.4612C2.21251 10.4595 2.18152 10.4612 2.15397 10.463ZM30.7186 15.9974C30.7186 16.945 31.4865 17.7141 32.4352 17.7141C33.3857 17.7141 34.1553 16.945 34.1553 15.9991C34.1553 15.0464 33.3857 14.2859 32.4387 14.2859C31.4865 14.2859 30.7186 15.0464 30.7186 15.9974ZM0 15.9991C0 16.945 0.773087 17.7141 1.7218 17.7141C2.66879 17.7141 3.43671 16.945 3.43671 15.9974C3.43671 15.0464 2.66879 14.2876 1.7218 14.2876C0.773087 14.2859 0 15.0464 0 15.9991ZM31.8326 18.3904C30.9648 18.4351 30.295 19.1767 30.3398 20.0453C30.3846 20.919 31.1284 21.58 32.0013 21.5353C32.8691 21.4907 33.5406 20.756 33.4958 19.8805C33.4528 19.041 32.752 18.3887 31.917 18.3887C31.8877 18.3887 31.8601 18.3887 31.8326 18.3904ZM0.661175 19.8805C0.616408 20.756 1.28791 21.4907 2.15569 21.5353C3.02865 21.58 3.77246 20.9208 3.81895 20.0453C3.86543 19.1767 3.19566 18.4351 2.32443 18.3904C2.29688 18.3887 2.26933 18.3887 2.24178 18.3887C1.40499 18.3887 0.70422 19.041 0.661175 19.8805ZM30.2296 22.2357C29.4445 22.3181 28.8711 23.0219 28.9537 23.8064C29.0364 24.5944 29.7441 25.1592 30.5292 25.0768C31.3161 24.9944 31.8877 24.2957 31.8033 23.5077C31.7258 22.773 31.106 22.2288 30.3811 22.2288C30.3312 22.2271 30.2795 22.2288 30.2296 22.2357ZM2.35369 23.506C2.27105 24.294 2.84097 24.9926 3.62783 25.075C4.41469 25.1574 5.12063 24.5927 5.20155 23.8047C5.2842 23.0202 4.71256 22.3164 3.9257 22.234C3.87404 22.2271 3.82411 22.2254 3.77418 22.2254C3.05102 22.2271 2.43118 22.773 2.35369 23.506ZM27.7605 25.6965C27.1338 25.796 26.7034 26.3814 26.8049 27.008C26.9048 27.6363 27.4937 28.0586 28.1204 27.9607C28.7454 27.8612 29.1759 27.2792 29.0743 26.6492C28.9847 26.0844 28.494 25.6827 27.9396 25.6827C27.8811 25.681 27.8208 25.6862 27.7605 25.6965ZM5.08447 26.6475C4.98461 27.2775 5.41161 27.8594 6.03835 27.959C6.6668 28.0586 7.25394 27.6363 7.35552 27.0063C7.45539 26.3814 7.02665 25.796 6.39819 25.6965C6.33793 25.6862 6.27595 25.6827 6.21741 25.6827C5.66127 25.6827 5.17401 26.0844 5.08447 26.6475ZM24.5614 28.3384C24.0484 28.4465 23.7212 28.9495 23.8314 29.4611C23.9399 29.9744 24.4444 30.2988 24.9575 30.1907C25.4688 30.0825 25.7977 29.5812 25.6875 29.0663C25.5928 28.6234 25.1985 28.3178 24.7594 28.3178C24.6957 28.3178 24.6286 28.3247 24.5614 28.3384ZM8.46952 29.0663C8.35933 29.5812 8.68819 30.0808 9.19956 30.1907C9.71094 30.2988 10.2154 29.9726 10.3239 29.4611C10.4324 28.9512 10.1052 28.4465 9.59386 28.3384C9.52843 28.3247 9.46128 28.3178 9.39757 28.3178C8.95852 28.3178 8.56422 28.6234 8.46952 29.0663ZM20.8613 30.0774C20.467 30.1838 20.2311 30.5889 20.3361 30.9837C20.4429 31.3769 20.8492 31.6103 21.2435 31.5039C21.6396 31.3992 21.8772 30.9958 21.7704 30.5992C21.6826 30.2696 21.3813 30.0516 21.0524 30.0516C20.9904 30.0516 20.9267 30.0585 20.8613 30.0774ZM12.3866 30.5992C12.2816 30.994 12.5175 31.3975 12.9118 31.5022C13.3078 31.6086 13.7141 31.3751 13.8209 30.9803C13.9259 30.5872 13.6917 30.1821 13.294 30.0756C13.2303 30.0585 13.1666 30.0499 13.1029 30.0499C12.7775 30.0516 12.4761 30.2679 12.3866 30.5992ZM16.3881 31.3133C16.3881 31.6944 16.698 32 17.0768 32C17.459 32 17.769 31.6944 17.769 31.3116C17.769 30.9322 17.459 30.625 17.0768 30.625C16.698 30.625 16.3881 30.9322 16.3881 31.3133Z" fill="#94A8B6"/>
</svg>
