<svg width="255" height="40" viewBox="0 0 255 40" fill="none" xmlns="http://www.w3.org/2000/svg">
<g clip-path="url(#clip0_4163_56974)">
<path d="M14.6146 12.0866V25.6655C16.4781 24.6747 17.7828 22.9498 18.4162 21.0042L18.5655 21.0789C18.1549 25.923 14.8006 30.7665 9.58294 30.7665C4.32791 30.7665 0.45166 26.9132 0.45166 20.7473C0.45166 16.124 3.50786 13.2242 7.42145 10.618C6.84959 10.4703 6.26062 10.3963 5.66935 10.3979C2.98521 10.3979 1.42041 12.1961 1.42041 14.0316H1.19578C1.15845 13.7747 1.15845 13.5178 1.15845 13.2609C1.15845 9.99479 2.91054 6.03078 7.15949 6.03078C9.88033 6.03078 11.9678 8.48955 15.1354 8.48955C16.4028 8.48955 17.9682 7.90238 18.6016 6.54455H18.7136C18.6763 8.93055 17.9315 11.3899 14.614 12.0866H14.6146ZM16.6268 25.9958C14.7633 27.9408 12.7511 29.5922 10.1423 29.5922C5.29729 29.5922 1.57037 25.849 1.57037 20.4177C1.57037 17.2249 2.91181 15.5001 4.40258 13.4811H4.25325C3.3212 14.3986 0.861685 16.7105 0.861685 20.6372C0.861685 26.6564 4.70061 30.3629 9.73227 30.3629C13.2358 30.3629 15.6207 27.9781 16.7021 26.0331L16.6274 25.9958H16.6268ZM18.1175 8.19659C17.4841 9.37093 16.1427 10.8755 13.4219 10.8755C10.701 10.8755 8.20417 9.04064 6.00471 9.04064C3.99192 9.04064 2.61315 10.3618 2.09113 11.3526L2.12909 11.426C2.83651 10.7294 3.91726 10.0315 5.66935 10.0315C8.57623 10.0315 10.4403 11.7936 13.3845 11.7936C16.5154 11.7936 17.9315 9.77461 18.1922 8.23391L18.1175 8.19659V8.19659ZM7.75618 10.7288C5.85538 12.6744 4.10329 14.8029 4.10329 18.9498C4.10329 21.2244 4.886 23.5737 6.6381 25.0416L7.71884 24.4905V14.6548L6.71277 15.1686L6.5261 14.8016L11.7444 12.0119C10.3283 11.7196 9.06092 11.0951 7.75618 10.7281V10.7288ZM14.2039 12.16C13.9432 12.1961 13.6826 12.1961 13.3845 12.1961C12.8625 12.1961 12.3784 12.16 11.8938 12.0493V22.7657L7.01079 25.3732C8.01687 26.1071 9.24695 26.5469 10.8124 26.5469C12.0798 26.5469 13.1979 26.29 14.2039 25.8496V12.16V12.16ZM8.83755 14.0322L8.12887 14.4353V24.2716L8.83755 23.9046V14.0316V14.0322ZM30.2683 15.4261V28.1243C30.2683 31.6473 27.1001 34.0333 23.5599 34.7299L23.4852 34.5831C25.2373 33.7391 26.244 32.0143 26.244 30.1794V17.0408L24.2312 15.2432L23.4485 16.0867V26.3261L24.5666 27.3169V27.3909L21.5477 30.6204L18.0815 27.501V27.3536L19.4229 25.9591V9.73791L23.3738 5.59227L23.4485 5.62834V15.4634L26.6914 12.0138L30.0829 15.0237L30.7157 14.3625L31.0143 14.62L30.2683 15.4261V15.4261ZM19.8323 27.427V27.3536L20.615 26.5823V9.11466L19.8323 9.9214V26.2154L18.6396 27.3903V27.4631L21.5464 30.032L22.0678 29.4448L19.8323 27.4264V27.427ZM27.4361 16.4537L25.0139 14.3986L24.4919 14.949L26.654 16.8586V30.0699C26.654 30.9507 26.4674 31.8675 26.132 32.3819L26.17 32.4186C27.1014 31.7574 27.4367 30.7665 27.4367 29.4827V16.4537H27.4361ZM36.1947 22.8031V24.674L39.8096 27.4637L41.8971 25.2618L42.1957 25.5548L37.3507 30.6558L32.4304 26.7658L31.6857 27.5371L31.387 27.2435L32.2444 26.3628V17.0775L39.2889 12.0132L42.9784 17.8849L36.1947 22.8031ZM33.4359 26.0331V16.7105L32.6538 17.2616V26.4001L37.2754 30.1066L37.8721 29.4827L33.4365 26.0331H33.4359ZM36.2694 14.7288L36.1947 14.7662V22.2893L39.5116 19.9039L36.2694 14.7288V14.7288ZM37.2381 13.9949L36.5674 14.472L39.8476 19.647L40.5183 19.1693L37.2381 13.9949ZM67.2731 30.6197L62.0921 26.216L58.1418 30.6197L52.7741 26.0686V18.8757H51.7307C50.7987 18.8757 50.3146 19.4635 50.0906 20.1602H49.9786C49.8597 19.7044 49.7972 19.2362 49.7926 18.7656C49.7926 17.8115 50.0539 15.316 52.7741 15.316V9.00395C52.7741 7.79291 51.3207 7.31583 51.3207 5.70112C51.3207 3.60933 53.3328 1.55423 57.0237 0.268555L57.173 0.378649C55.8316 1.14993 55.1229 1.88389 55.1229 3.46191C55.1229 5.88461 57.5084 5.26012 57.5084 9.07672V10.5446L61.8693 6.03078L66.4536 10.4719L70.7773 6.03078L74.9509 10.0676V23.6465L67.2731 30.6191V30.6197ZM53.9675 25.482V17.7387H51.8794C50.7987 17.7387 50.3146 18.4354 50.2399 19.0598L50.2766 19.0972C50.65 18.6929 51.0227 18.4733 51.8794 18.4733H53.1835V25.8863L58.1038 30.0705L58.6625 29.4093L53.9675 25.482V25.482ZM53.9675 8.63634C53.9675 7.13234 52.6261 6.61795 52.6261 5.66442C52.6261 4.34267 53.1474 3.24234 53.9675 2.2148L53.8928 2.1781C52.7748 3.02278 51.7313 4.38061 51.7313 5.70112C51.7313 7.02287 53.1848 7.64612 53.1848 8.82108V15.3166H53.9675V8.63634V8.63634ZM61.8314 12.3068L58.9992 9.59112L57.5084 11.0957V24.0869L60.9 26.9132L61.8314 25.8851V12.3068V12.3068ZM63.0241 25.4092V11.7936L59.8559 8.71098L59.2599 9.29815L62.2414 12.1239V25.8129L67.2731 30.1066L67.8697 29.5555L63.0241 25.4092ZM70.2546 11.8309L67.9071 9.62781L66.5656 10.9863V24.0514L70.2179 27.2068L70.2546 27.1707V11.8297V11.8309ZM71.4473 11.3165L68.7265 8.71098L68.1678 9.29815L70.6646 11.6468V26.9873L71.4473 26.2533V11.3159V11.3165ZM87.2845 30.6197L83.7437 27.4637L80.5755 30.6197L76.6992 27.2435L76.1772 27.7934L75.8791 27.5004L76.5499 26.8031V16.9681L83.557 11.9765L87.5826 15.0598L88.2913 14.3258L88.5893 14.6194L87.7692 15.4634V25.6294L89.7447 27.427L90.3781 26.7664L90.6761 27.0233L87.2845 30.6197V30.6197ZM77.7426 26.5463V16.6378L76.9605 17.1876V26.9132L80.5388 30.0699L81.1348 29.4827L77.7432 26.5469L77.7426 26.5463ZM83.7437 16.8947L80.6874 14.5454L80.5755 14.6194V25.2985L83.1103 27.4631L83.743 26.8398V16.894L83.7437 16.8947ZM84.9364 26.8765V16.3442L81.7682 13.8114L81.0234 14.3252L84.1537 16.7472V27.2441L87.2845 30.0332L87.8439 29.4454L84.9364 26.8772V26.8765ZM98.13 18.6555H101.969V26.5102L96.0431 30.6204C95.2604 29.7396 94.1417 29.1157 92.7629 29.1157C91.6449 29.1157 90.7501 29.4827 89.558 30.4736L89.3714 30.4002L94.441 23.134H91.3095V16.3069L97.5345 12.0499C98.2793 12.6371 98.838 12.9667 99.808 12.9667C100.553 12.9667 101.634 12.8199 102.454 12.16L102.604 12.2334L98.13 18.6555V18.6555ZM93.9563 28.0509C92.8749 28.0509 92.0182 28.4179 91.2722 28.9316V29.005C91.8688 28.7481 92.4649 28.6754 93.0243 28.6754C93.881 28.6754 95.2231 29.079 96.1178 30.1066L96.9752 29.4827C96.2665 28.6747 95.4097 28.0509 93.9563 28.0509V28.0509ZM97.9433 21.885H95.8565L91.4955 28.0882L91.5329 28.1616C92.6136 27.3903 93.657 26.8772 94.9244 26.8772C96.0425 26.8772 97.1979 27.3909 97.906 28.2717L97.9439 28.235V21.885H97.9433ZM92.5016 21.885V15.9772L91.7195 16.5277V22.693H94.7378L95.3344 21.8856H92.5022L92.5016 21.885ZM100.292 14.6922C99.5094 15.2432 99.062 15.5362 97.7573 15.5362C97.0119 15.5362 96.1172 15.2065 95.4097 14.472L95.3351 14.5093V19.8666H96.7512L100.329 14.7288L100.291 14.6915L100.292 14.6922ZM98.5033 14.3619C97.8326 14.3619 96.9752 14.0322 96.4152 13.2982L95.4838 13.9215C96.1925 14.7655 96.8632 15.1325 97.906 15.1325C98.5767 15.1325 99.5461 14.9484 100.553 14.1044L100.589 13.9949C99.9567 14.2524 99.174 14.3619 98.5033 14.3619V14.3619ZM99.136 20.6752H96.7138L96.1545 21.4452H98.3539V28.5647L99.1367 28.0142V20.6746L99.136 20.6752ZM114.828 15.4261V28.1243C114.828 31.6473 111.66 34.0333 108.119 34.7299L108.045 34.5831C109.797 33.7391 110.803 32.0143 110.803 30.1794V17.0408L108.791 15.2432L108.007 16.0867V26.3261L109.125 27.3169V27.3909L106.107 30.6204L102.641 27.501V27.3536L103.982 25.9591V9.73791L107.933 5.59164L108.007 5.62772V15.4634L111.25 12.0138L114.642 15.0237L115.275 14.3625L115.574 14.62L114.827 15.4261H114.828ZM104.392 27.427V27.3536L105.174 26.5823V9.11466L104.392 9.9214V26.2154L103.199 27.3903V27.4637L106.106 30.0326L106.627 29.4448L104.392 27.427V27.427ZM111.995 16.4537L109.572 14.3986L109.051 14.949L111.212 16.8586V30.0699C111.212 30.9507 111.026 31.8675 110.691 32.3819L110.729 32.4186C111.66 31.7574 111.995 30.7665 111.995 29.4827V16.4537H111.995ZM121.611 30.6197L118.406 27.7206L117.66 28.4913L117.361 28.197L118.219 27.2802V16.6745L116.654 15.2065L116.057 15.8671L115.759 15.5735L119.113 11.9765L122.095 14.6194L122.84 13.812L123.176 14.0689L122.244 15.0598V25.7768L124.034 27.4276L124.854 26.583L125.151 26.8772L121.611 30.6197V30.6197ZM119.412 27.0233V16.0867L117.474 14.3252L116.952 14.913L118.629 16.491V27.3909L121.611 30.0326L122.17 29.4454L119.412 27.0233ZM120.53 11.6835L117.474 8.93117L120.269 5.99532L123.326 8.74706L120.53 11.6829V11.6835ZM118.629 8.34338L118.071 8.89385L120.493 11.1324L121.051 10.5086L118.629 8.34338V8.34338ZM137.371 30.6197L134.128 27.7206V17.0048L132.153 15.2432L131.108 16.3442V26.2527L132.265 27.3163V27.4637L129.208 30.6197L125.742 27.5004V27.3903L127.084 25.9958V16.7472L125.332 15.1692L124.623 15.9399L124.326 15.6463L127.718 12.0132L131.109 14.9864V15.7203L134.65 12.0132L137.966 14.949L138.712 14.1784L139.048 14.472L138.153 15.3894V25.8851L139.83 27.4264L140.65 26.5456L140.948 26.8392L137.371 30.6197V30.6197ZM127.532 27.427V27.3536C127.532 27.427 128.277 26.6197 128.277 26.6197V16.1962L126.152 14.2879L125.63 14.8383L127.494 16.5264V26.2147L126.338 27.3897V27.4631L129.208 30.032L129.804 29.4081L127.532 27.427V27.427ZM135.321 27.1334V16.3809L133.01 14.3252L132.414 14.949L134.538 16.8206V27.5004L137.333 30.0693L137.93 29.4448L135.321 27.1334V27.1334ZM147.881 37.2254C146.652 35.9043 145.794 35.3538 144.639 35.3538C143.409 35.3538 141.992 35.8315 140.539 36.6015L140.427 36.4921L145.571 30.6204L141.918 27.7579L141.21 28.4919L140.912 28.235L141.731 27.3542V16.9687L148.813 11.9771L152.764 15.0604L153.435 14.3264L153.733 14.62L152.951 15.4641V28.016C152.951 29.9237 154.031 29.851 154.031 31.2816C154.031 32.9323 151.608 34.4737 147.881 37.226V37.2254ZM142.925 27.06V16.6745L142.142 17.2249V27.3909L145.831 30.3268L146.391 29.6656L142.925 27.0594V27.06ZM145.533 34.3996C144.303 34.3996 143.185 34.7666 142.142 35.4639V35.5379C142.813 35.281 143.558 34.9507 144.825 34.9507C145.981 34.9507 146.949 35.574 147.919 36.6756L148.664 36.0884C147.732 35.0248 146.614 34.4003 145.533 34.4003V34.3996ZM150.08 30.8766C149.149 30.2895 148.925 29.6656 148.925 28.0876V27.4264L142.738 34.4724L142.775 34.5091C143.967 33.8125 145.049 33.2987 146.801 33.2987C148.292 33.2987 149.298 33.8853 150.453 34.84C151.162 34.2529 151.646 33.6657 151.646 32.7482C151.646 32.0143 151.012 31.4638 150.08 30.8766V30.8766ZM148.925 16.894L145.831 14.5093L145.756 14.5827V25.849L148.142 27.6839L148.925 26.8031V16.8947V16.894ZM151.198 30.3629C150.229 29.6289 150.117 29.005 150.117 27.427V16.2708L146.986 13.7753L146.279 14.2524L149.335 16.6372V27.9408C149.335 29.5188 149.41 29.9598 150.416 30.6197C151.31 31.2069 152.018 31.8308 152.018 32.6748C152.018 32.8944 151.981 33.262 151.981 33.262L152.018 33.2987C152.205 33.1146 152.429 32.8216 152.429 32.3439C152.429 31.5372 152.018 30.9867 151.198 30.3629V30.3629ZM160.144 30.6197L156.714 27.9775L156.007 28.7481L155.709 28.4539L156.528 27.5738V14.7295H154.366L154.291 14.6555L155.596 12.7465H156.527V10.2884L160.478 6.14149L160.553 6.21551V12.7472H163.535L163.61 12.8212L162.305 14.7295H160.552V25.8496L162.603 27.3916L163.386 26.5469L163.684 26.8405L160.144 30.6197V30.6197ZM157.721 9.66451L156.938 10.5086V12.7478H157.721V9.66451ZM157.721 27.2068V14.7295H156.938V27.6472L160.106 30.0699L160.665 29.4827L157.721 27.2068V27.2068ZM175.871 15.7931V26.0686L169.573 30.6564L164.839 27.1334L164.28 27.7573L163.982 27.4637L164.653 26.7297V16.6745L171.25 12.0132L175.648 15.39L176.355 14.6561L176.654 14.949L175.871 15.7937V15.7931ZM165.846 26.3628V16.3442L165.063 16.8947V26.7664L169.536 30.1427L170.244 29.6295L165.847 26.3628H165.846ZM171.846 17.0048L168.716 14.5821L168.679 14.6194V25.5548L171.846 27.9035V17.0048V17.0048ZM173.04 16.3442L169.573 13.7007L168.866 14.2151L172.257 16.7839V28.1977L173.04 27.6111V16.3442V16.3442ZM190.11 30.6191L186.867 27.7206V17.0048L184.891 15.2432L183.847 16.3442V26.2527L185.003 27.3163V27.4637L181.947 30.6197L178.481 27.5004V27.3903L179.822 25.9958V16.7472L178.071 15.1692L177.362 15.9399L177.065 15.6463L180.456 12.0132L183.848 14.9864V15.7203L187.389 12.0132L190.706 14.949L191.451 14.1784L191.786 14.472L190.892 15.3894V25.8851L192.569 27.4264L193.389 26.5456L193.687 26.8392L190.11 30.6197V30.6191ZM180.27 27.427V27.3536C180.27 27.427 181.015 26.6197 181.015 26.6197V16.1962L178.891 14.2879L178.37 14.8383L180.233 16.5264V26.2147L179.078 27.3897V27.4631L181.948 30.032L182.544 29.4081L180.27 27.427V27.427ZM188.059 27.1334V16.3809L185.749 14.3252L185.153 14.949L187.277 16.8206V27.5004L190.072 30.0693L190.668 29.4448L188.06 27.1334H188.059ZM213.135 30.6197C212.091 29.5188 211.719 29.1518 210.488 28.8215V36.0144L210.413 36.0511L208.923 34.7293L204.599 38.656L204.524 38.6199V28.7481C203.22 29.0417 201.841 29.7023 200.499 31.0228L200.424 30.9867C200.686 28.161 202.101 26.0692 204.524 25.2618V18.1051H203.741C202.66 18.1051 202.064 18.6555 201.542 19.6464H201.431C201.319 19.3167 201.244 18.8023 201.244 17.9589C201.244 16.417 202.4 14.8029 204.3 14.8029H204.524V10.8389L202.996 9.48102L202.25 10.215L201.989 9.9581L205.754 6.0314L209.257 9.18744V12.5276L210.077 11.6462V7.42593H210.487V11.2792L215.443 6.03078L219.655 9.8113V25.7756L213.135 30.6197V30.6197ZM204.525 27.3903C202.998 27.6833 201.917 28.6014 201.209 29.8124L201.246 29.8858C202.29 29.005 203.258 28.602 204.525 28.3078V27.3903ZM205.718 16.858H203.668C202.252 16.858 201.693 17.7387 201.656 18.7663L201.693 18.803C202.14 18.069 202.587 17.8121 203.482 17.702H204.936V37.7031L205.718 36.9691V16.858V16.858ZM205.718 10.2517L203.854 8.56419L203.258 9.18744L204.935 10.6554V14.8022H205.718V10.2511V10.2517ZM210.079 12.3435L209.259 13.1875V34.437L210.079 35.1709V12.3435V12.3435ZM214.962 11.4994L212.762 9.51772L210.489 11.9404V24.8581C212.427 25.0423 213.768 25.5921 214.924 26.8398L214.962 26.8031V11.4994ZM210.489 27.3903V28.3445C211.756 28.6381 212.278 29.005 213.172 30.0326L214.03 29.372C213.135 28.2711 212.24 27.6111 210.489 27.3903ZM216.154 10.9129L213.62 8.60027L213.023 9.22413L215.371 11.3526V28.4179L216.154 27.8307V10.9122V10.9129ZM232.665 15.7937V26.0692L226.365 30.6564L221.632 27.1334L221.073 27.7573L220.775 27.4637L221.446 26.7297V16.6745L228.043 12.0132L232.441 15.39L233.148 14.6561L233.447 14.949L232.665 15.7937V15.7937ZM222.639 26.3628V16.3442L221.856 16.8947V26.7664L226.329 30.1427L227.037 29.6295L222.64 26.3628H222.639ZM228.639 17.0048L225.509 14.5821L225.471 14.6194V25.5548L228.639 27.9035V17.0048ZM229.833 16.3442L226.366 13.7007L225.658 14.2151L229.05 16.7839V28.1977L229.833 27.6111V16.3442V16.3442ZM241.311 18.6555H245.15V26.5102L239.225 30.6204C238.442 29.7396 237.324 29.1157 235.945 29.1157C234.827 29.1157 233.933 29.4827 232.74 30.4736L232.554 30.4002L237.622 23.134H234.491V16.3069L240.715 12.0499C241.461 12.6371 242.02 12.9667 242.989 12.9667C243.735 12.9667 244.815 12.8199 245.635 12.16L245.784 12.2334L241.311 18.6555V18.6555ZM237.137 28.0509C236.056 28.0509 235.199 28.4179 234.454 28.9316V29.005C235.05 28.7481 235.646 28.6754 236.206 28.6754C237.063 28.6754 238.405 29.079 239.299 30.1066L240.157 29.4827C239.449 28.6747 238.591 28.0509 237.137 28.0509V28.0509ZM241.125 21.885H239.039L234.678 28.0882L234.715 28.1616C235.796 27.3903 236.839 26.8772 238.107 26.8772C239.225 26.8772 240.38 27.3909 241.088 28.2717L241.125 28.235V21.885ZM235.684 21.885V15.9772L234.901 16.5277V22.693H237.919L238.516 21.8856H235.684L235.684 21.885ZM243.474 14.6922C242.69 15.2432 242.244 15.5362 240.939 15.5362C240.193 15.5362 239.298 15.2065 238.591 14.472L238.516 14.5093V19.8666H239.931L243.51 14.7288L243.474 14.6915V14.6922ZM241.684 14.3619C241.013 14.3619 240.157 14.0322 239.597 13.2982L238.665 13.9215C239.374 14.7655 240.045 15.1325 241.089 15.1325C241.76 15.1325 242.728 14.9484 243.735 14.1044L243.772 13.9949C243.138 14.2524 242.356 14.3619 241.684 14.3619ZM242.318 20.6752H239.896L239.337 21.4452H241.536V28.5647L242.318 28.0142V20.6746V20.6752ZM251.338 30.6197L247.909 27.9775L247.201 28.7481L246.903 28.4539L247.722 27.5738V14.7295H245.56L245.486 14.6555L246.79 12.7465H247.722V10.2884L251.673 6.14149L251.748 6.21551V12.7472H254.729L254.804 12.8212L253.499 14.7295H251.748V25.8496L253.798 27.3916L254.58 26.5469L254.878 26.8405L251.338 30.6197V30.6197ZM248.915 9.66451L248.133 10.5086V12.7478H248.915V9.66451H248.915ZM248.915 27.2068V14.7295H248.133V27.6472L251.3 30.0699L251.86 29.4827L248.915 27.2068H248.915Z" fill="#94A8B6"/>
</g>
<defs>
<clipPath id="clip0_4163_56974">
<rect width="255" height="40" fill="white"/>
</clipPath>
</defs>
</svg>
