<svg width="157" height="28" viewBox="0 0 157 28" fill="none" xmlns="http://www.w3.org/2000/svg">
<path d="M36.1147 8.94679H41.0385V21.6664H44.0748V8.94679H48.9985V6.3208H36.1147V8.94679Z" fill="#94A8B6"/>
<path d="M60.8157 12.4755H54.1687V6.3208H51.0503V21.5843H54.1687V15.1014H60.8157V21.5843H63.934V6.40286H60.8157V12.4755Z" fill="#94A8B6"/>
<path d="M69.5139 15.1014H76.1609V12.6396H69.5139V9.02882H76.9815V6.40283H66.3955V21.6664H77.2277V19.0404H69.5139V15.1014V15.1014Z" fill="#94A8B6"/>
<path d="M93.9686 13.6244C94.7892 13.2961 96.2663 12.3114 96.2663 10.0957C96.2663 7.88001 94.6251 6.23877 91.9991 6.23877H85.27V21.5023H92.3273C94.9533 21.5023 96.9228 19.8611 96.9228 17.3171C96.7587 15.2656 95.2816 14.0347 93.9686 13.6244ZM88.1422 8.7827H91.0144C92.3274 8.7827 93.23 9.43919 93.23 10.7522C93.23 11.9831 92.4915 12.7217 91.1785 12.7217H88.3063V8.7827H88.1422V8.7827ZM91.4247 19.2866H88.0601V15.0194H91.2606C92.7377 15.0194 93.6403 15.758 93.6403 17.2351C93.6403 18.5481 92.8197 19.2866 91.4247 19.2866Z" fill="#94A8B6"/>
<path d="M101.929 6.40283H98.9744V21.6664H109.478V18.9583H102.011V6.40283H101.929Z" fill="#94A8B6"/>
<path d="M117.767 6.23877C113.417 6.23877 110.217 9.27507 110.217 14.0347C110.217 18.7943 113.417 21.7485 117.767 21.7485C122.116 21.7485 125.316 18.7122 125.316 13.9526C125.316 9.19301 122.034 6.23877 117.767 6.23877ZM117.767 19.0405C115.305 19.0405 113.335 17.153 113.335 13.9526C113.335 10.7522 115.305 8.86476 117.767 8.86476C120.229 8.86476 122.198 10.7522 122.198 13.9526C122.198 17.153 120.229 19.0405 117.767 19.0405Z" fill="#94A8B6"/>
<path d="M134.261 8.86479C136.723 8.86479 137.79 10.3419 138.118 11.9831H141.154C140.826 8.6186 138.693 6.15674 134.261 6.15674C130.076 6.15674 127.122 9.2751 127.122 13.9526C127.122 18.7122 130.158 21.7485 134.261 21.7485C138.693 21.7485 140.826 19.2867 141.154 15.9221H138.118C137.872 17.5634 136.887 19.0405 134.343 19.0405C131.963 19.0405 130.158 17.1531 130.158 13.9526C130.158 10.8343 131.963 8.86479 134.261 8.86479Z" fill="#94A8B6"/>
<path d="M150.427 12.8858L156.008 6.3208H152.397L146.16 13.8705V6.3208H143.124V21.5843H146.16V17.5633L148.376 15.1014L152.971 21.6664H156.5L150.427 12.8858Z" fill="#94A8B6"/>
<path d="M13.3837 27.903L0.992373 22.8152C0.582062 22.569 0.5 22.569 0.5 22.0766V5.6642C0.5 5.25389 0.582062 5.17182 0.992373 4.92564L13.3837 0.166039C13.7941 0.0839767 13.8761 0.0839767 14.2864 0.166039L26.6778 4.92564C27.0881 5.17182 27.1702 5.25389 27.1702 5.6642V22.1587C27.1702 22.569 27.0881 22.651 26.6778 22.8972L14.2864 27.903C13.8761 27.9851 13.7941 28.0671 13.3837 27.903ZM13.7941 26.508L24.6262 22.2407L13.7941 18.3018L2.96186 22.1587L13.7941 26.508ZM1.97712 21.0919L11.7425 17.4811L9.93714 16.7426C9.85508 16.6605 9.69095 16.4964 9.69095 16.4143V11.3265C9.69095 11.0803 9.77301 10.9982 9.93714 10.9982L11.7425 10.2597L1.97712 6.56688V21.0919ZM25.6931 21.0919V6.64894L15.9277 10.2597L17.733 10.9982C17.8151 11.0803 17.9792 11.2444 17.9792 11.3265V16.4143C17.9792 16.4964 17.8972 16.7426 17.733 16.7426L15.9277 17.4811L25.6931 21.0919ZM13.7941 16.6605L16.42 15.5937V11.983L13.7941 10.9162L11.1681 11.983V15.5937L13.7941 16.6605ZM13.7941 9.52111L24.6262 5.58213L13.7941 1.39697L2.96186 5.50007L13.7941 9.52111Z" fill="#94A8B6"/>
<path d="M26.5957 5.00774L14.2043 0.0840139C14.1223 0.0840139 13.8761 0.00195312 13.794 0.00195312C13.712 0.00195312 13.4658 0.00195187 13.3837 0.0840139L0.992342 5.00774C0.746155 5.00774 0.582031 5.33599 0.582031 5.66424V22.1587C0.582031 22.487 0.828217 22.6511 0.992342 22.8152L13.2196 27.821C13.3017 27.821 13.5478 27.9031 13.6299 27.9031C13.712 27.9031 13.9581 27.9031 14.0402 27.821L26.2675 22.8152C26.5136 22.7331 26.6778 22.487 26.6778 22.1587V5.66424C27.006 5.33599 26.7598 5.00774 26.5957 5.00774ZM13.794 1.23288L24.9545 5.50011L13.794 9.52115L2.63358 5.50011L13.794 1.23288ZM13.794 10.8341L16.5021 11.983V15.7579L13.794 16.9067L11.086 15.7579V11.983L13.794 10.8341ZM1.81296 6.48486L11.9887 10.3418L9.93711 11.1624C9.85504 11.1624 9.69092 11.2445 9.69092 11.4086V16.4144C9.69092 16.4964 9.77298 16.6606 9.77298 16.6606L11.8245 17.4812L1.7309 21.256V6.48486H1.81296ZM13.794 26.6721L2.71565 22.1587L13.8761 18.1377L24.9545 22.1587L13.794 26.6721ZM25.7751 21.256L15.5994 17.4812L17.6509 16.6606C17.733 16.6606 17.733 16.5785 17.733 16.4144V11.2445C17.733 11.1624 17.6509 10.9983 17.6509 10.9983L15.5994 10.1777L25.7751 6.32073V21.256Z" fill="#94A8B6"/>
</svg>
