<svg width="53" height="29" viewBox="0 0 53 29" fill="none" xmlns="http://www.w3.org/2000/svg">
<path d="M9.05526 0.0963085V0.664196L9.58105 0.785411C10.3892 0.987991 10.5109 1.47451 10.8339 3.01462L11.6751 7.34434L9.33016 19.9915L6.13648 4.10058C5.77215 2.35706 5.65126 1.06022 6.94546 0.776278L7.55157 0.655063V0.0963085H0V0.664196L0.768405 0.867605C1.53681 1.07018 1.85974 1.43466 2.38553 3.8266L7.51928 28.1885H8.84411L12.2804 9.78526L16.0893 28.1885H17.1409L22.0734 4.57963C22.6398 1.86473 22.8824 1.0926 23.8537 0.843528L24.6213 0.640118V0.0963085H19.0735V0.664196L19.9222 0.826093C21.1353 1.06935 21.4176 1.83899 20.8513 4.96071L17.8273 19.9915L14.7637 4.10058C14.4324 2.51979 14.2379 1.06022 15.5726 0.816961L16.4619 0.655063V0.0871753L9.05526 0.0963085ZM45.0279 0.172691V0.740578L46.0381 0.98384C46.9265 1.18642 47.2909 1.51104 47.2909 2.64599V22.3062C47.2909 24.4947 47.2909 27.3732 45.0262 27.3732C43.7329 27.3732 42.7243 26.2382 42.8038 25.4678C42.8841 24.2116 45.0676 24.2921 45.1885 22.2655C45.3102 20.8541 44.4201 20.1899 43.5308 20.0761C42.278 19.9142 40.742 20.9678 40.7006 23.0758C40.6609 25.7907 42.4395 28.2632 45.4701 28.2632C48.8236 28.2632 51.0178 25.995 51.0178 21.6569L51.0186 2.68584C51.0186 1.5509 51.3018 1.18559 52.11 0.98384L52.9935 0.731445V0.163558L45.0279 0.172691ZM31.4069 0C27.9706 0 26.0306 2.87846 26.0306 6.64777C26.0306 13.6608 35.0461 16.3766 35.0461 22.7005C35.0461 25.7002 33.7924 27.3615 31.9824 27.3615C29.2748 27.3615 27.333 24.0796 26.8486 18.8499H26.2425V28.0922H26.7278C27.1318 26.7638 27.6576 26.6334 28.1023 26.6334C28.8707 26.6334 29.678 28.2524 32.023 28.2524C35.6207 28.2524 37.9649 25.1323 37.9665 20.8333C37.9665 12.4022 28.951 10.3349 28.951 4.29485C28.951 2.91665 29.3551 0.890852 31.3771 0.890852C34.2884 0.890852 35.5421 4.74153 36.0265 9.40335H36.6326V0.162728H36.1473C35.9453 1.05441 35.5818 1.45957 35.056 1.45957C34.1261 1.45957 33.6484 0.000829788 31.4177 0.000829788L31.4069 0ZM37.9152 7.94959V8.04922L37.9342 8.0376L37.9243 7.95457L37.9152 7.94959Z" fill="#94A8B6"/>
</svg>
